<svg width="46" height="46" viewBox="0 0 46 46" fill="none" xmlns="http://www.w3.org/2000/svg">
<rect width="46" height="46" rx="8" fill="#2A69AF"/>
<path d="M30.2677 20.0924C27.5283 22.478 27.7003 25.2725 30.7675 27.3011C30.1606 29.0375 29.3427 30.6896 27.7458 31.7217C27.2459 32.0463 26.3079 32.0625 25.7302 31.8289C24.3345 31.2609 23.0428 31.2349 21.6893 31.8678C20.9038 32.2378 20.06 32.2086 19.4335 31.5887C16.7656 28.9629 15.4868 25.8146 16.1911 22.056C16.6714 19.5049 19.4011 17.4374 22.3352 18.8298C23.2505 19.2615 24.0294 19.0603 24.8863 18.7259C27.0739 17.8723 29.0278 18.3754 30.2677 20.0924Z" fill="white"/>
<path d="M26.9568 14C27.1093 16.259 25.3534 18.2227 23.4222 18.0182C23.1658 16.0383 24.8601 14.0811 26.9568 14Z" fill="white"/>
</svg>
