<svg width="337" height="245" viewBox="0 0 337 245" fill="none" xmlns="http://www.w3.org/2000/svg">
<mask id="mask0" style="mask-type:alpha" maskUnits="userSpaceOnUse" x="36" y="32" width="265" height="173">
<rect x="36" y="32" width="264.588" height="173" rx="20" fill="#DEF5F2"/>
</mask>
<g mask="url(#mask0)">
<g filter="url(#filter0_d)">
<rect x="36" y="32.0001" width="264.588" height="173" rx="20" fill="#DEF5F2"/>
</g>
<path opacity="0.12" d="M32.494 236.378V179.171H19.0391V162.032H32.494V145.356H19.0391V128.217H32.494V71.0099H68.9151L87.0097 128.217H108.12V71.0099H133.87V128.217H147.093V145.356H133.87V162.032H147.093V179.171H133.87V236.378H97.2169L78.6584 179.171H58.244V236.378H32.494ZM57.3161 128.217H63.8115L57.0841 105.983H56.1561L57.3161 128.217ZM58.244 162.032H73.5548L68.4512 145.356H57.78L58.244 162.032ZM97.9129 162.032H108.584L108.12 145.356H92.5773L97.9129 162.032ZM108.816 200.247H109.976L109.048 179.171H102.784L108.816 200.247Z" fill="#006156"/>
<g opacity="0.8">
<path d="M326.877 35.6876V35.172C319.181 41.8882 313.509 56.9836 312.349 73.8837C312.04 78.4601 310.325 81.4121 307.386 82.4305C305.22 83.1782 302.5 82.8688 299.51 81.5152C296.532 80.1617 293.567 77.9186 290.937 75.0181C289.931 73.9095 288.655 72.6462 287.289 71.3055C280.959 65.0792 272.309 56.5453 276.28 48.9783C278.458 44.8402 282.571 44.0668 286.915 43.2546C291.324 42.4296 295.887 41.5788 298.079 36.8736C298.736 35.4556 299.2 33.8184 299.471 31.9621H298.684C298.427 33.7024 297.988 35.2235 297.37 36.5513C295.346 40.8956 291.169 41.6819 286.76 42.507C282.416 43.3191 277.93 44.157 275.584 48.6302C272.49 54.5343 276.396 60.7993 281.269 66.2394C284.711 70.5578 289.016 74.5154 291.53 77.4288C300.167 87.458 313.213 90.5518 314.837 77.2354C316.448 64.1252 320.934 52.1752 326.864 44.634L326.877 35.6876Z" fill="#006156"/>
<path d="M186.61 58.9053C186.391 60.4135 185.927 61.9863 185.437 63.6492C184.599 66.4981 183.749 69.4115 184.032 72.2346C183.787 74.7484 183.981 77.2235 185.231 79.4923C186.726 82.1994 190.349 83.0889 193.017 81.9674C201.384 78.4481 201.822 65.8536 211.361 64.1133H211.374C215.357 63.0304 219.908 65.2735 222.886 67.7357C227.926 71.9252 232.077 79.5567 232.928 86.4534C232.915 86.7628 232.915 87.0851 232.902 87.3945C232.825 90.1532 232.747 93.2083 232.954 96.2377C232.979 101.394 233.482 106.757 236.022 110.856C240.018 117.327 250.279 115.523 248.462 109.438C248.681 109.155 248.874 108.845 249.003 108.523C249.532 107.26 249.648 105.107 247.134 102.116C244.414 98.8675 243.189 95.8381 243.254 92.5896C243.318 89.7278 244.388 86.6339 246.708 82.5603C248.771 78.9509 251.813 75.4832 255.049 71.8221C260.025 66.1629 265.181 60.2975 266.638 53.6715C267.527 49.6109 267.399 44.9572 266.238 39.8266C265.671 37.3128 264.859 34.6702 263.802 31.9373H262.977C264.073 34.7346 264.911 37.4288 265.491 39.9942C266.625 45.0088 266.754 49.5593 265.89 53.504C264.472 59.9366 259.393 65.7247 254.469 71.3194C251.22 75.0191 248.139 78.5126 246.038 82.1865C243.64 86.3761 242.545 89.586 242.48 92.5767C242.403 96.0315 243.692 99.2156 246.541 102.619C248.333 104.759 248.926 106.692 248.281 108.226C247.701 109.593 246.167 110.508 244.156 110.663C241.874 110.843 238.535 109.928 236.589 106.795C233.276 101.446 233.495 93.6595 233.663 87.4074C233.676 86.7628 233.701 86.1312 233.714 85.5124C233.882 78.0356 229.434 68.5865 223.376 63.559C220.333 61.0323 215.628 58.7377 211.516 59.8592H211.503C207.391 61.0194 204.619 65.2864 201.951 69.4244C200.017 72.4022 198.199 75.2125 195.956 76.8367C193.817 78.3965 191.586 79.0153 189.691 78.5899C188.093 78.229 186.791 77.1719 185.824 75.4316C183.826 71.835 185.025 67.7743 186.172 63.8555C186.675 62.1667 187.139 60.5682 187.371 59.0084C188.028 54.5223 187.526 49.237 185.966 44.1322C184.483 39.3109 182.124 35.044 179.25 31.9501H178.18C181.196 34.9924 183.684 39.3754 185.218 44.3642C186.739 49.2886 187.242 54.5868 186.61 58.9053Z" fill="#006156"/>
<path d="M315.365 91.5101C311.691 98.5615 308.224 105.239 304.086 107.521C301.533 108.926 299.342 109.197 297.382 108.359C292.11 106.064 289.545 95.8931 287.276 86.9209C285.574 80.1531 284.092 74.3135 281.694 71.9802C278.819 69.1829 275.751 68.0871 272.58 68.7188C263.505 70.5107 256.234 85.7221 254.223 90.35C251.026 97.6849 251.555 102.932 256.092 109.106C256.66 109.88 257.33 110.692 258.039 111.556C261.146 115.346 265 120.077 263.221 124.962C261.829 128.791 262.693 132.749 265.722 136.397C268.262 139.439 272.245 142.133 276.654 143.77C278.252 144.363 279.915 144.879 281.526 145.382C287.508 147.238 293.154 149.004 296.751 154.599C297.911 156.404 299.058 158.556 300.077 160.903H300.915C299.845 158.389 298.633 156.094 297.395 154.173C293.644 148.347 287.598 146.465 281.746 144.634C280.147 144.131 278.497 143.629 276.911 143.036C272.619 141.45 268.751 138.846 266.302 135.894C264.317 133.509 262.293 129.719 263.93 125.22C265.864 119.922 261.855 115.01 258.619 111.066C257.923 110.215 257.265 109.403 256.698 108.642C252.354 102.738 251.851 97.6978 254.919 90.6593C256.067 88.0296 258.49 82.9247 261.842 78.2582C265.542 73.1275 269.203 70.1755 272.709 69.4794C275.622 68.9122 278.458 69.9306 281.14 72.5345C283.383 74.7131 284.904 80.7461 286.515 87.1143C288.823 96.2669 291.44 106.631 297.06 109.068C299.226 110.009 301.701 109.712 304.447 108.204C308.791 105.806 312.31 99.0385 316.036 91.8711C319.362 85.4771 322.778 78.9285 326.864 75.3706V74.3651C322.443 77.9101 318.859 84.781 315.365 91.5101Z" fill="#006156"/>
<path d="M319.916 106.1C317.841 110.289 315.869 114.247 313.265 116.142C309.191 119.107 304.525 120.267 300.116 119.403C295.617 118.527 291.621 115.6 288.888 111.179C287.792 109.4 286.735 105.932 285.613 102.245C283.37 94.8715 280.831 86.5181 276.422 85.4095C274.978 85.0485 273.676 85.2161 272.555 85.9122C269.551 87.7685 268.404 93.0152 267.489 97.2177C267.089 99.0353 266.754 100.608 266.328 101.575C264.047 106.809 264.433 110.56 267.669 114.969C268.159 115.626 268.7 116.271 269.28 116.967C270.789 118.759 272.361 120.602 272.813 122.729C273.032 123.773 272.838 124.766 272.632 125.823C272.387 127.086 272.129 128.401 272.658 129.742C274.72 135.079 282.159 137.038 288.14 138.611C289.803 139.049 291.376 139.462 292.639 139.9C300.863 142.762 312.117 146.668 317.493 155.021C318.537 156.645 319.555 158.656 320.406 160.848H321.231C320.342 158.489 319.259 156.323 318.137 154.596C312.62 146.023 301.212 142.053 292.884 139.165C291.582 138.714 289.996 138.301 288.32 137.85C282.507 136.316 275.275 134.421 273.354 129.445C272.916 128.298 273.135 127.164 273.367 125.952C273.573 124.869 273.792 123.735 273.547 122.549C273.057 120.228 271.433 118.307 269.861 116.451C269.293 115.781 268.752 115.136 268.288 114.505C265.233 110.354 264.885 106.821 267.037 101.871C267.489 100.84 267.837 99.2287 268.249 97.3724C269.139 93.2988 270.247 88.2455 272.967 86.5568C273.921 85.9638 274.978 85.8349 276.242 86.1443C280.238 87.1498 282.816 95.6321 284.879 102.464C286.065 106.357 287.083 109.722 288.23 111.578C291.092 116.18 295.256 119.236 299.974 120.151C304.602 121.053 309.475 119.854 313.729 116.76C316.487 114.749 318.498 110.715 320.613 106.435C322.482 102.658 324.402 98.8033 326.89 96.3282V95.2453C324.042 97.7849 321.953 101.987 319.916 106.1Z" fill="#006156"/>
<path d="M321.296 119.687L320.909 120.009C315.997 124.018 310.441 128.556 303.764 126.455C302.114 125.939 300.502 125.075 298.955 124.25C295.539 122.433 292.007 120.551 287.74 122.123C285.149 123.077 284.466 124.431 284.337 125.411C284.144 126.983 285.252 128.685 287.457 130.18C290.795 132.449 294.792 133.467 298.659 134.447C300.528 134.924 302.462 135.414 304.254 136.033C311.473 138.547 321.025 141.859 326.89 148.292V147.171C320.87 141.009 311.576 137.773 304.512 135.311C302.681 134.679 300.734 134.176 298.852 133.699C295.049 132.733 291.131 131.727 287.895 129.536C285.974 128.221 284.956 126.751 285.111 125.501C285.239 124.418 286.245 123.503 288.011 122.845C291.956 121.389 295.178 123.116 298.595 124.934C300.18 125.771 301.817 126.648 303.532 127.189H303.545C310.622 129.407 316.345 124.727 321.412 120.602L321.798 120.28C321.927 120.177 322.108 120.022 322.327 119.842C323.99 118.462 325.511 117.263 326.89 116.258V115.291C325.124 116.554 323.358 117.972 321.824 119.249C321.605 119.442 321.425 119.584 321.296 119.687Z" fill="#006156"/>
<path d="M200.058 85.5887C198.63 89.1482 198.137 92.3788 198.657 94.6845C199.398 97.9666 201.923 99.7733 204.373 101.51C205.246 102.141 206.166 102.798 206.97 103.506C209.068 105.357 210.159 107.576 211.32 109.929C212.53 112.381 213.77 114.913 216.242 116.969L216.298 117.003C217.625 117.808 218.86 118.352 219.966 118.637C224.495 120.61 229.717 120.696 231.455 116.212C233.64 110.561 225.873 104.227 223.865 99.3527C221.131 92.7375 224.923 86.2018 222.994 79.418C221.616 74.5646 216.274 71.4188 214.088 71.7515C213.825 71.7893 213.554 71.8548 213.293 71.929C213.129 71.9355 212.974 71.9507 212.811 71.9754C210.571 72.3103 208.159 73.8197 205.823 76.3477C203.521 78.8197 201.429 82.1866 200.058 85.5887ZM212.017 109.573C210.877 107.255 209.696 104.866 207.484 102.91C206.653 102.177 205.723 101.511 204.822 100.872C202.391 99.1345 200.09 97.4831 199.416 94.5085C198.422 90.1143 201.614 82.0241 206.381 76.8639C208.595 74.4684 210.856 73.0471 212.914 72.7376C215.118 72.4041 216.838 74.3796 218.035 78.5742C218.861 81.4789 219.228 84.5205 219.572 87.4716C220.047 91.4029 220.527 95.4616 222.101 99.2856C222.676 100.677 223.46 102.032 224.223 103.334C226.189 106.696 228.039 109.879 226.533 113.77C226.061 114.984 225.488 115.964 224.85 116.655C223.013 118.644 220.345 118.549 216.701 116.357C214.388 114.396 213.178 111.945 212.017 109.573Z" fill="#006156"/>
<path d="M291.969 52.951C291.762 53.2862 291.608 53.66 291.492 54.0597C290.77 56.5863 291.518 59.5641 293.529 62.2197C295.875 65.3135 299.433 67.3245 302.591 67.3245C302.926 67.3245 303.274 67.2988 303.596 67.2601C304.989 67.0667 306.097 66.3448 306.909 65.1073C308.521 62.6322 308.559 58.4168 307.786 55.6968C307.335 54.1241 306.007 52.6932 304.048 51.6748C302.269 50.7467 300.077 50.2181 298.028 50.2181C295.204 50.231 292.987 51.2236 291.969 52.951ZM307.038 55.9031C307.67 58.0817 307.838 62.2455 306.252 64.6819C305.569 65.726 304.641 66.3319 303.48 66.4866C303.184 66.5253 302.887 66.5511 302.578 66.5511C299.652 66.5511 296.326 64.669 294.134 61.7556C292.278 59.2934 291.582 56.5605 292.227 54.2659C292.317 53.9308 292.459 53.6214 292.626 53.3378C293.516 51.8424 295.475 50.9916 298.028 50.9916C301.689 51.0045 306.175 52.8737 307.038 55.9031Z" fill="#006156"/>
<path d="M248.787 51.851C248.899 51.4739 248.952 51.0727 248.961 50.6567C249.004 48.0293 247.511 45.3465 244.881 43.3019C241.814 40.9207 237.857 39.8991 234.806 40.7165C234.483 40.8032 234.153 40.9182 233.852 41.039C232.557 41.5861 231.673 42.5703 231.209 43.9759C230.293 46.7837 231.347 50.8654 232.798 53.2926C233.641 54.6949 235.294 55.7334 237.45 56.21C239.408 56.6461 241.662 56.5894 243.642 56.0589C246.365 55.3158 248.25 53.7831 248.787 51.851ZM233.467 52.8998C232.293 50.959 231.053 46.9804 231.954 44.2167C232.344 43.0312 233.084 42.2058 234.164 41.7561C234.441 41.642 234.72 41.5403 235.019 41.4603C237.846 40.7029 241.545 41.66 244.416 43.9069C246.846 45.8048 248.226 48.2644 248.198 50.6476C248.197 50.9947 248.14 51.3303 248.052 51.6476C247.58 53.3222 245.907 54.6512 243.442 55.3118C239.902 56.2469 235.085 55.6025 233.467 52.8998Z" fill="#006156"/>
<path d="M237.394 71.9357C237.71 72.483 238.351 73.1098 239.589 72.9789C240.748 72.8575 242.458 72.0281 243.249 71.2067C244.39 70.0246 244.121 67.6624 243.205 66.0753C242.552 64.9442 241.634 64.282 240.686 64.2823C240.502 64.2792 240.31 64.3049 240.119 64.3541C239.12 64.6028 238.193 65.5881 237.572 67.041C236.94 68.5371 236.641 70.6313 237.394 71.9357ZM240.273 64.9583C240.413 64.9263 240.549 64.9087 240.681 64.9055C241.403 64.9141 242.115 65.4517 242.658 66.3913C243.669 68.1426 243.512 70.0206 242.793 70.7763C242.118 71.4822 240.527 72.2431 239.519 72.3508C238.796 72.4272 238.268 72.1852 237.941 71.6197C237.388 70.6619 237.479 68.8822 238.157 67.2749C238.691 66.0301 239.479 65.1617 240.273 64.9583Z" fill="#006156"/>
<path d="M203.938 58.4198C206.052 58.4714 208.153 57.5819 210.396 55.7127C213.902 52.7735 215.926 48.4937 217.886 44.3686C218.002 44.1108 218.118 43.8658 218.247 43.6209C222.527 34.6101 226.574 27.288 232.427 20.8682C232.685 20.5846 232.968 20.2624 233.291 19.9143C233.755 19.3987 234.283 18.8057 234.863 18.174L233.819 18.174C233.419 18.6123 233.059 19.0248 232.723 19.3987C232.414 19.7467 232.117 20.069 231.873 20.3526C225.956 26.8497 221.882 34.2234 217.564 43.2986C217.447 43.5436 217.331 43.8014 217.203 44.0592C215.282 48.1199 213.297 52.3095 209.919 55.1455C207.831 56.8858 205.884 57.7237 203.976 57.6721C201.476 57.6206 199.361 56.9631 197.866 55.7772C196.242 54.488 195.43 52.6704 195.481 50.3629C195.559 46.2765 197.376 42.5767 199.142 38.993C200.895 35.4222 202.7 31.7483 202.894 27.5845C203.048 24.0652 202.584 20.8167 201.579 18.174L200.754 18.174C201.785 20.7522 202.275 24.0008 202.12 27.5458C201.94 31.542 200.161 35.1515 198.446 38.645C196.654 42.2931 194.798 46.0702 194.708 50.3371C194.592 55.1842 198.137 58.2909 203.938 58.4198Z" fill="#006156"/>
</g>
<path fill-rule="evenodd" clip-rule="evenodd" d="M261.893 185.272H270.924V169.044H261.893V185.272Z" fill="#FF5F00"/>
<path fill-rule="evenodd" clip-rule="evenodd" d="M262.464 177.158C262.464 173.866 264.006 170.934 266.407 169.044C264.651 167.662 262.436 166.838 260.028 166.838C254.328 166.838 249.707 171.458 249.707 177.158C249.707 182.858 254.328 187.478 260.028 187.478C262.436 187.478 264.651 186.654 266.407 185.272C264.006 183.382 262.464 180.45 262.464 177.158Z" fill="#EB001B"/>
<path fill-rule="evenodd" clip-rule="evenodd" d="M283.106 177.158C283.106 182.858 278.485 187.479 272.785 187.479C270.377 187.479 268.162 186.654 266.406 185.272C268.807 183.382 270.348 180.451 270.348 177.158C270.348 173.866 268.807 170.935 266.406 169.045C268.162 167.663 270.377 166.838 272.785 166.838C278.485 166.838 283.106 171.459 283.106 177.158Z" fill="#F79E1B"/>
<path d="M55.3517 180.068C56.4969 180.068 57.3129 179.488 57.4919 178.307H56.9121C56.7832 179.138 56.2035 179.56 55.366 179.56C54.2637 179.56 53.6051 178.773 53.6051 177.47V177.412C53.6051 176.124 54.3138 175.301 55.3731 175.301C56.2464 175.301 56.6974 175.702 56.8262 176.482H57.4418C57.3344 175.372 56.4325 174.807 55.366 174.807C53.9774 174.807 52.9609 175.902 52.9609 177.42V177.477C52.9609 179.052 53.87 180.068 55.3517 180.068Z" fill="#1D1E2C"/>
<path d="M59.4047 180.068C59.9559 180.068 60.2923 179.882 60.5714 179.531V180.004H61.1655V177.534C61.1655 176.489 60.5142 176.195 59.7984 176.195C59.0754 176.195 58.3954 176.51 58.3167 177.362H58.9108C58.9681 176.904 59.2544 176.689 59.7698 176.689C60.3424 176.689 60.5714 176.94 60.5714 177.534V177.806H60.0346C59.0754 177.806 58.1592 178.1 58.1592 178.966C58.1592 179.732 58.7104 180.068 59.4047 180.068ZM59.462 179.596C58.9394 179.596 58.7533 179.352 58.7533 178.966C58.7533 178.415 59.3045 178.229 60.0561 178.229H60.5714V178.694C60.5714 179.274 60.0919 179.596 59.462 179.596Z" fill="#1D1E2C"/>
<path d="M62.3326 180.004H62.9267V177.949C62.9267 177.026 63.4062 176.79 64.1578 176.754V176.195C63.485 176.217 63.1629 176.51 62.9267 176.933V176.26H62.3326V180.004Z" fill="#1D1E2C"/>
<path d="M66.329 180.068C66.873 180.068 67.3955 179.725 67.6103 179.36V180.004H68.2044V174.47H67.6103V176.861C67.3955 176.496 67.009 176.195 66.3863 176.195C65.3555 176.195 64.6397 177.004 64.6397 178.15V178.207C64.6397 179.374 65.3484 180.068 66.329 180.068ZM66.3934 179.574C65.7635 179.574 65.2553 179.123 65.2553 178.178V178.121C65.2553 177.212 65.6991 176.689 66.4435 176.689C67.1736 176.689 67.6317 177.14 67.6317 178.1V178.157C67.6317 179.116 67.0877 179.574 66.3934 179.574Z" fill="#1D1E2C"/>
<path d="M71.3438 180.004H71.9666V177.727H74.6579V180.004H75.2807V174.885H74.6579V177.205H71.9666V174.885H71.3438V180.004Z" fill="#1D1E2C"/>
<path d="M78.0899 179.574C77.3312 179.574 76.8659 179.016 76.8659 178.164V178.107C76.8659 177.248 77.3383 176.689 78.0899 176.689C78.8343 176.689 79.3139 177.248 79.3139 178.114V178.164C79.3139 179.009 78.8415 179.574 78.0899 179.574ZM78.0827 180.068C79.1493 180.068 79.9295 179.288 79.9295 178.157V178.1C79.9295 176.976 79.1493 176.195 78.0899 176.195C77.0305 176.195 76.2503 176.983 76.2503 178.107V178.164C76.2503 179.259 77.0162 180.068 78.0827 180.068Z" fill="#1D1E2C"/>
<path d="M80.8637 180.004H81.465V174.47H80.8637V180.004Z" fill="#1D1E2C"/>
<path d="M84.0909 180.068C84.6349 180.068 85.1574 179.725 85.3722 179.36V180.004H85.9663V174.47H85.3722V176.861C85.1574 176.496 84.7709 176.195 84.1482 176.195C83.1174 176.195 82.4016 177.004 82.4016 178.15V178.207C82.4016 179.374 83.1103 180.068 84.0909 180.068ZM84.1553 179.574C83.5254 179.574 83.0172 179.123 83.0172 178.178V178.121C83.0172 177.212 83.461 176.689 84.2054 176.689C84.9355 176.689 85.3936 177.14 85.3936 178.1V178.157C85.3936 179.116 84.8496 179.574 84.1553 179.574Z" fill="#1D1E2C"/>
<path d="M88.7002 180.068C89.5449 180.068 90.1676 179.675 90.2964 178.923H89.7023C89.6236 179.36 89.2872 179.574 88.7074 179.574C87.9415 179.574 87.5335 179.102 87.5049 178.25H90.3251V178.057C90.3251 176.718 89.5091 176.195 88.643 176.195C87.6122 176.195 86.8893 176.983 86.8893 178.114V178.171C86.8893 179.324 87.6409 180.068 88.7002 180.068ZM87.5263 177.77C87.6265 177.105 88.0345 176.689 88.643 176.689C89.2585 176.689 89.6594 176.997 89.7166 177.77H87.5263Z" fill="#1D1E2C"/>
<path d="M91.2367 180.004H91.8308V177.949C91.8308 177.026 92.3104 176.79 93.062 176.754V176.195C92.3891 176.217 92.067 176.51 91.8308 176.933V176.26H91.2367V180.004Z" fill="#1D1E2C"/>
<path d="M95.8652 180.004H96.4593V175.616L99.0433 180.004H99.759V174.885H99.1649V179.116L96.674 174.885H95.8652V180.004Z" fill="#1D1E2C"/>
<path d="M101.94 180.068C102.491 180.068 102.827 179.882 103.106 179.531V180.004H103.7V177.534C103.7 176.489 103.049 176.195 102.333 176.195C101.61 176.195 100.93 176.51 100.852 177.362H101.446C101.503 176.904 101.789 176.689 102.305 176.689C102.877 176.689 103.106 176.94 103.106 177.534V177.806H102.569C101.61 177.806 100.694 178.1 100.694 178.966C100.694 179.732 101.245 180.068 101.94 180.068ZM101.997 179.596C101.474 179.596 101.288 179.352 101.288 178.966C101.288 178.415 101.839 178.229 102.591 178.229H103.106V178.694C103.106 179.274 102.627 179.596 101.997 179.596Z" fill="#1D1E2C"/>
<path d="M104.867 180.004H105.462V177.713C105.462 177.04 105.963 176.711 106.449 176.711C106.965 176.711 107.244 176.983 107.244 177.642V180.004H107.838V177.713C107.838 177.04 108.339 176.711 108.826 176.711C109.341 176.711 109.62 176.983 109.62 177.642V180.004H110.214V177.684C110.214 176.596 109.627 176.195 108.955 176.195C108.489 176.195 107.931 176.41 107.673 176.897C107.48 176.396 107.058 176.195 106.578 176.195C106.041 176.195 105.633 176.482 105.462 176.833V176.26H104.867V180.004Z" fill="#1D1E2C"/>
<path d="M112.914 180.068C113.759 180.068 114.381 179.675 114.51 178.923H113.916C113.837 179.36 113.501 179.574 112.921 179.574C112.155 179.574 111.747 179.102 111.719 178.25H114.539V178.057C114.539 176.718 113.723 176.195 112.857 176.195C111.826 176.195 111.103 176.983 111.103 178.114V178.171C111.103 179.324 111.855 180.068 112.914 180.068ZM111.74 177.77C111.84 177.105 112.248 176.689 112.857 176.689C113.472 176.689 113.873 176.997 113.93 177.77H111.74Z" fill="#1D1E2C"/>
<path d="M152.7 178.377H153.328V173.215H152.743L151.545 174.081V174.666L152.7 173.836V178.377Z" fill="#1D1E2C"/>
<path d="M156.674 177.922C155.815 177.922 155.266 177.243 155.266 175.937V175.648C155.266 174.377 155.786 173.655 156.66 173.655C157.533 173.655 158.039 174.435 158.039 175.633V175.922C158.039 177.229 157.577 177.922 156.674 177.922ZM156.674 178.442C157.945 178.442 158.674 177.431 158.674 175.929V175.641C158.674 174.168 157.93 173.15 156.66 173.15C155.396 173.15 154.624 174.132 154.624 175.655V175.944C154.624 177.446 155.439 178.442 156.674 178.442Z" fill="#1D1E2C"/>
<path d="M158.859 179.445H159.408L161.509 172.774H160.96L158.859 179.445Z" fill="#1D1E2C"/>
<path d="M163.05 178.377H163.679V173.215H163.094L161.895 174.081V174.666L163.05 173.836V178.377Z" fill="#1D1E2C"/>
<path d="M164.678 178.377H168.136V177.864H165.645L167.068 176.478C167.703 175.857 168.107 175.236 168.107 174.601C168.107 173.713 167.501 173.15 166.548 173.15C165.566 173.15 164.952 173.792 164.873 174.803H165.458C165.559 173.994 165.949 173.655 166.548 173.655C167.133 173.655 167.472 174.002 167.472 174.579C167.472 175.106 167.198 175.576 166.728 176.074L164.678 178.233V178.377Z" fill="#1D1E2C"/>
<path d="M136.77 175.868H137.208L138.248 172.856H137.903L137.006 175.514L136.109 172.856H135.746L136.77 175.868Z" fill="#1D1E2C"/>
<path d="M138.252 175.868H138.597L138.888 175H140.13L140.425 175.868H140.787L139.768 172.856H139.288L138.252 175.868ZM139.511 173.159L140.033 174.709H138.989L139.511 173.159Z" fill="#1D1E2C"/>
<path d="M141.317 175.868H143.061V175.569H141.683V172.856H141.317V175.868Z" fill="#1D1E2C"/>
<path d="M143.592 175.868H143.958V172.856H143.592V175.868Z" fill="#1D1E2C"/>
<path d="M145.105 175.569V173.151H145.514C146.344 173.151 146.681 173.64 146.681 174.335V174.368C146.681 175.105 146.293 175.569 145.518 175.569H145.105ZM144.739 175.868H145.527C146.579 175.868 147.06 175.206 147.06 174.372V174.335C147.06 173.496 146.571 172.856 145.535 172.856H144.739V175.868Z" fill="#1D1E2C"/>
<path d="M136.618 180.681H136.985V177.969H137.861V177.67H135.742V177.969H136.618V180.681Z" fill="#1D1E2C"/>
<path d="M138.36 180.681H138.726V179.342H140.31V180.681H140.676V177.67H140.31V179.034H138.726V177.67H138.36V180.681Z" fill="#1D1E2C"/>
<path d="M141.436 180.681H141.803V179.371H142.266L143.163 180.681H143.572L142.649 179.346C143.062 179.266 143.395 179.021 143.395 178.524V178.508C143.395 177.905 142.919 177.67 142.342 177.67H141.436V180.681ZM141.803 179.08V177.964H142.367C142.776 177.964 143.028 178.099 143.028 178.508V178.524C143.028 178.895 142.797 179.08 142.367 179.08H141.803Z" fill="#1D1E2C"/>
<path d="M145.117 180.719C145.892 180.719 146.259 180.268 146.259 179.535V177.67H145.892V179.485C145.892 180.222 145.606 180.415 145.126 180.415C144.625 180.415 144.401 180.171 144.401 179.539V177.67H144.035V179.582C144.035 180.314 144.427 180.719 145.117 180.719Z" fill="#1D1E2C"/>
<path d="M206.285 178.278C206.93 178.278 207.401 177.777 207.401 177.161C207.401 176.545 206.93 176.044 206.285 176.044C205.649 176.044 205.168 176.545 205.168 177.161C205.168 177.777 205.649 178.278 206.285 178.278Z" fill="#1D1E2C"/>
<path d="M210.059 178.278C210.704 178.278 211.175 177.777 211.175 177.161C211.175 176.545 210.704 176.044 210.059 176.044C209.423 176.044 208.942 176.545 208.942 177.161C208.942 177.777 209.423 178.278 210.059 178.278Z" fill="#1D1E2C"/>
<path d="M213.832 178.278C214.477 178.278 214.949 177.777 214.949 177.161C214.949 176.545 214.477 176.044 213.832 176.044C213.197 176.044 212.716 176.545 212.716 177.161C212.716 177.777 213.197 178.278 213.832 178.278Z" fill="#1D1E2C"/>
<path d="M193.288 178.888C193.961 178.888 194.442 178.546 194.547 177.852H194.206C194.13 178.34 193.789 178.589 193.296 178.589C192.647 178.589 192.26 178.125 192.26 177.359V177.325C192.26 176.567 192.677 176.083 193.3 176.083C193.814 176.083 194.079 176.319 194.155 176.778H194.517C194.454 176.125 193.923 175.792 193.296 175.792C192.479 175.792 191.881 176.436 191.881 177.329V177.363C191.881 178.29 192.416 178.888 193.288 178.888Z" fill="#1D1E2C"/>
<path d="M195.834 178.85H196.272L197.313 175.838H196.967L196.07 178.496L195.173 175.838H194.811L195.834 178.85Z" fill="#1D1E2C"/>
<path d="M198.59 178.85H199.028L200.068 175.838H199.723L198.826 178.496L197.929 175.838H197.567L198.59 178.85Z" fill="#1D1E2C"/>
<path d="M89.6758 151.952H94.3531V151.258H90.9843L92.9079 149.384C93.7672 148.544 94.314 147.704 94.314 146.845C94.314 145.644 93.4938 144.882 92.2049 144.882C90.8768 144.882 90.0468 145.751 89.9394 147.118H90.7304C90.8671 146.024 91.3944 145.565 92.2049 145.565C92.9958 145.565 93.4547 146.034 93.4547 146.815C93.4547 147.528 93.0837 148.163 92.449 148.837L89.6758 151.756V151.952Z" fill="#1D1E2C"/>
<path d="M98.2085 151.336C97.0465 151.336 96.3044 150.419 96.3044 148.651V148.261C96.3044 146.542 97.0074 145.565 98.189 145.565C99.3705 145.565 100.054 146.62 100.054 148.241V148.632C100.054 150.399 99.4291 151.336 98.2085 151.336ZM98.2085 152.04C99.9271 152.04 100.913 150.672 100.913 148.641V148.251C100.913 146.259 99.9076 144.882 98.189 144.882C96.4801 144.882 95.4353 146.21 95.4353 148.27V148.661C95.4353 150.692 96.5387 152.04 98.2085 152.04Z" fill="#1D1E2C"/>
<path d="M104.855 151.336C103.693 151.336 102.951 150.419 102.951 148.651V148.261C102.951 146.542 103.654 145.565 104.836 145.565C106.017 145.565 106.701 146.62 106.701 148.241V148.632C106.701 150.399 106.076 151.336 104.855 151.336ZM104.855 152.04C106.574 152.04 107.56 150.672 107.56 148.641V148.251C107.56 146.259 106.554 144.882 104.836 144.882C103.127 144.882 102.082 146.21 102.082 148.27V148.661C102.082 150.692 103.185 152.04 104.855 152.04Z" fill="#1D1E2C"/>
<path d="M108.535 153.153L109.736 151.112L108.945 150.741L108.008 152.879L108.535 153.153Z" fill="#1D1E2C"/>
<path d="M113.285 151.336C112.123 151.336 111.381 150.419 111.381 148.651V148.261C111.381 146.542 112.084 145.565 113.265 145.565C114.447 145.565 115.13 146.62 115.13 148.241V148.632C115.13 150.399 114.505 151.336 113.285 151.336ZM113.285 152.04C115.003 152.04 115.99 150.672 115.99 148.641V148.251C115.99 146.259 114.984 144.882 113.265 144.882C111.556 144.882 110.512 146.21 110.512 148.27V148.661C110.512 150.692 111.615 152.04 113.285 152.04Z" fill="#1D1E2C"/>
<path d="M119.931 151.336C118.769 151.336 118.027 150.419 118.027 148.651V148.261C118.027 146.542 118.73 145.565 119.912 145.565C121.093 145.565 121.777 146.62 121.777 148.241V148.632C121.777 150.399 121.152 151.336 119.931 151.336ZM119.931 152.04C121.65 152.04 122.636 150.672 122.636 148.641V148.251C122.636 146.259 121.63 144.882 119.912 144.882C118.203 144.882 117.158 146.21 117.158 148.27V148.661C117.158 150.692 118.262 152.04 119.931 152.04Z" fill="#1D1E2C"/>
<path d="M126.578 151.336C125.416 151.336 124.674 150.419 124.674 148.651V148.261C124.674 146.542 125.377 145.565 126.558 145.565C127.74 145.565 128.423 146.62 128.423 148.241V148.632C128.423 150.399 127.798 151.336 126.578 151.336ZM126.578 152.04C128.296 152.04 129.283 150.672 129.283 148.641V148.251C129.283 146.259 128.277 144.882 126.558 144.882C124.849 144.882 123.805 146.21 123.805 148.27V148.661C123.805 150.692 124.908 152.04 126.578 152.04Z" fill="#1D1E2C"/>
<path d="M83.4245 151.947V149.37H82.6426V148.729H83.4245V147.907H82.6426V147.265H83.4245V144.789H84.467L85.4193 147.265H86.6022V144.789H87.3942V147.265H88.1761V147.907H87.3942V148.729H88.1761V149.37H87.3942V151.947H86.3416L85.3893 149.37H84.2064V151.947H83.4245ZM84.1863 147.265H84.6074L84.1863 146.022H84.1462L84.1863 147.265ZM84.2064 148.729H85.1487L84.848 147.907H84.1863L84.2064 148.729ZM85.9506 148.729H86.6223L86.6022 147.907H85.6499L85.9506 148.729ZM86.6022 150.533H86.6423L86.6123 149.37H86.1912L86.6022 150.533Z" fill="#1D1E2C"/>
<path d="M52.9609 150.869H54.3565C55.171 150.869 55.6951 150.499 55.6951 149.73V149.707C55.6951 149.177 55.4729 148.875 54.8805 148.733C55.3476 148.573 55.4957 148.243 55.4957 147.873V147.85C55.4957 147.047 54.9432 146.796 54.1856 146.796H52.9609V150.869ZM53.4451 150.482V148.961H54.2767C54.9318 148.961 55.2109 149.2 55.2109 149.701V149.724C55.2109 150.22 54.9375 150.482 54.3451 150.482H53.4451ZM53.4451 148.573V147.184H54.1742C54.7438 147.184 55.0115 147.372 55.0115 147.833V147.856C55.0115 148.357 54.7837 148.573 54.1856 148.573H53.4451Z" fill="#1D1E2C"/>
<path d="M56.1411 150.869H56.6082L57.0012 149.696H58.6816L59.0803 150.869H59.5702L58.1917 146.796H57.5424L56.1411 150.869ZM57.8442 147.206L58.5506 149.303H57.1379L57.8442 147.206Z" fill="#1D1E2C"/>
<path d="M60.2869 150.869H62.6451V150.465H60.7825V146.796H60.2869V150.869Z" fill="#1D1E2C"/>
<path d="M63.0276 150.869H63.4947L63.8877 149.696H65.5681L65.9668 150.869H66.4567L65.0782 146.796H64.4289L63.0276 150.869ZM64.7308 147.206L65.4371 149.303H64.0244L64.7308 147.206Z" fill="#1D1E2C"/>
<path d="M67.1734 150.869H67.6462V147.377L69.7025 150.869H70.2721V146.796H69.7993V150.163L67.8171 146.796H67.1734V150.869Z" fill="#1D1E2C"/>
<path d="M72.9984 150.92C73.9098 150.92 74.5592 150.459 74.7016 149.519H74.2402C74.1377 150.18 73.6763 150.516 73.0098 150.516C72.1326 150.516 71.6086 149.889 71.6086 148.853V148.807C71.6086 147.782 72.1725 147.127 73.0155 147.127C73.7105 147.127 74.0693 147.446 74.1719 148.066H74.6617C74.5763 147.184 73.8586 146.734 73.0098 146.734C71.9048 146.734 71.0959 147.605 71.0959 148.813V148.858C71.0959 150.111 71.8194 150.92 72.9984 150.92Z" fill="#1D1E2C"/>
<path d="M75.4561 150.869H77.934V150.465H75.9517V148.989H77.4669V148.585H75.9517V147.201H77.8314V146.796H75.4561V150.869Z" fill="#1D1E2C"/>
<path d="M74.1215 61.9398C73.8437 61.3612 73.5613 60.7842 73.2789 60.2072C73.1919 60.0286 73.0759 59.8698 72.9309 59.734C72.7492 59.5661 72.763 59.4149 72.9782 59.2852C73.3537 59.0593 73.6193 58.7387 73.7796 58.3342C74.0284 57.7098 74.033 57.0702 73.8498 56.4322C73.6514 55.7407 73.1828 55.3224 72.4913 55.1423C72.2211 55.0721 71.9463 55.0446 71.67 55.0415C70.7648 55.0339 69.8596 55.037 68.9544 55.04C68.6979 55.04 68.6094 55.1346 68.6094 55.3896C68.6094 56.5009 68.6094 57.6122 68.6094 58.7234C68.6094 59.8347 68.6094 60.946 68.6094 62.0573C68.6094 62.3183 68.6979 62.4099 68.9635 62.4145C69.2398 62.4176 69.5161 62.413 69.7939 62.416C70.1221 62.4206 70.2763 62.3824 70.2656 61.9566C70.2504 61.2956 70.261 60.6346 70.2626 59.9736C70.2626 59.7981 70.3252 59.705 70.458 59.6729C70.8793 59.5691 71.2456 59.7523 71.4288 60.1461C71.7417 60.8224 72.0638 61.494 72.3752 62.1718C72.4546 62.3443 72.5722 62.4191 72.7584 62.4176C73.1095 62.413 73.4621 62.4176 73.8132 62.416C74.1399 62.413 74.2605 62.2313 74.1215 61.9398ZM72.3707 57.5374C72.3249 57.9541 72.0822 58.1586 71.6196 58.18C71.2411 58.1983 70.861 58.1876 70.4824 58.1846C70.3389 58.1831 70.261 58.1022 70.2565 57.9526C70.2504 57.7556 70.2549 57.5587 70.2549 57.3618C70.2549 57.1649 70.2534 56.968 70.2549 56.7711C70.2565 56.6428 70.319 56.5436 70.4503 56.539C70.8671 56.5268 71.2853 56.5009 71.699 56.5512C72.2501 56.6199 72.4348 56.9619 72.3707 57.5374Z" fill="#1D1E2C"/>
<path d="M66.0605 59.5052C66.0605 60.3448 66.0605 61.1843 66.0605 62.0239C66.0605 62.314 65.9628 62.4117 65.6728 62.4132C65.3675 62.4147 65.0637 62.4147 64.7584 62.4132C64.4333 62.4117 64.3386 62.3185 64.3386 61.9934C64.3371 60.3478 64.3386 58.7007 64.3386 57.0552C64.3386 57.0079 64.3386 56.9621 64.3386 56.9147C64.3356 56.7102 64.2547 56.6262 64.0471 56.6247C63.6303 56.6217 63.2121 56.6247 62.7954 56.6232C62.5481 56.6232 62.4519 56.5301 62.4504 56.2874C62.4488 55.9866 62.4488 55.6874 62.4504 55.3867C62.4519 55.1501 62.5557 55.0387 62.7938 55.0387C64.3982 55.0372 66.001 55.0372 67.6053 55.0387C67.8587 55.0387 67.9534 55.1394 67.9534 55.3898C67.9549 55.6905 67.9549 55.9897 67.9534 56.2904C67.9519 56.5346 67.8648 56.6232 67.6252 56.6232C67.213 56.6247 66.7993 56.6232 66.3872 56.6232C66.1491 56.6232 66.0651 56.7071 66.0651 56.9437C66.0605 57.7971 66.0605 58.6519 66.0605 59.5052Z" fill="#1D1E2C"/>
<path d="M62.9252 62.3557C62.7649 62.3557 62.6061 62.3557 62.4474 62.3557C62.2779 62.3557 62.1665 62.2809 62.107 62.1176C61.9787 61.7604 61.8383 61.4077 61.7101 61.049C61.6566 60.8994 61.5635 60.8383 61.4048 60.8383C60.6308 60.8429 59.8569 60.8399 59.083 60.8399C58.8906 60.8399 58.8357 60.8796 58.7685 61.0566C58.6388 61.4032 58.5105 61.7512 58.3808 62.0977C58.3075 62.2931 58.2297 62.3526 58.0266 62.3542C57.703 62.3572 57.3794 62.3587 57.0558 62.3542C56.7658 62.3511 56.6528 62.174 56.7612 61.9038C56.8864 61.5909 57.0161 61.2795 57.1382 60.9635C57.1764 60.8674 57.2298 60.8292 57.3351 60.8261C58.3197 60.7895 59.112 60.3697 59.7058 59.5897C59.834 59.4202 59.9683 59.3409 60.1775 59.3592C60.3362 59.3729 60.4965 59.3622 60.6553 59.3622C60.9377 59.3607 61.0338 59.2294 60.9377 58.9684C60.7514 58.4616 60.5637 57.9579 60.3744 57.4526C60.321 57.3076 60.2736 57.161 60.237 57.0099C60.1149 56.5092 59.8859 56.0604 59.5302 55.6849C59.3883 55.5338 59.3837 55.3888 59.4585 55.2117C59.5318 55.0377 59.6585 54.9766 59.8355 54.9797C60.0844 54.9827 60.3332 54.9797 60.5805 54.9812C60.84 54.9827 60.9056 55.0255 61.0033 55.2666C61.5635 56.6481 62.1222 58.0296 62.6809 59.4111C63.0152 60.2369 63.3495 61.0627 63.6854 61.8871C63.8044 62.1801 63.6915 62.3526 63.3724 62.3557C63.2244 62.3572 63.0748 62.3557 62.9252 62.3557Z" fill="#1D1E2C"/>
<path d="M76.6435 58.7294C76.6435 59.8269 76.6435 60.9245 76.6435 62.022C76.6435 62.3151 76.5504 62.4113 76.2573 62.4128C75.9428 62.4143 75.6284 62.4143 75.3154 62.4128C75.0514 62.4113 74.9445 62.3059 74.9445 62.0464C74.943 59.8284 74.943 57.6104 74.9445 55.3924C74.9445 55.1497 75.0529 55.0414 75.2987 55.0398C75.6223 55.0368 75.9459 55.0368 76.2695 55.0398C76.5458 55.0414 76.6435 55.139 76.6435 55.4123C76.6435 56.5159 76.6435 57.6227 76.6435 58.7294Z" fill="#1D1E2C"/>
<path d="M80.6632 62.5244C80.2602 62.4588 79.8618 62.3717 79.4939 62.187C78.2773 61.5764 77.5614 60.5903 77.3629 59.2501C77.0836 57.3542 78.3353 55.3835 80.5029 55.0461C81.9241 54.8248 83.127 55.2949 84.0413 56.4322C84.0703 56.4688 84.0963 56.5085 84.1222 56.5466C84.1757 56.6245 84.1512 56.6825 84.081 56.7375C84.0139 56.7894 83.962 56.8351 83.8749 56.7619C83.7513 56.6581 83.6475 56.539 83.5406 56.4199C82.8995 55.7116 82.0783 55.3438 81.1471 55.3422C79.871 55.3392 78.8452 55.8796 78.1704 56.9954C77.8422 57.5373 77.6316 58.125 77.6606 58.7677C77.7491 60.6957 78.9856 61.868 80.5396 62.1306C81.8233 62.3473 82.9148 61.9199 83.7452 60.891C83.7681 60.862 83.7925 60.833 83.8185 60.8071C83.8994 60.7277 83.9925 60.7109 84.0826 60.7842C84.1757 60.8605 84.1497 60.9475 84.0887 61.033C83.7956 61.4391 83.4216 61.7535 82.9942 62.0084C82.5591 62.2679 82.089 62.4359 81.5913 62.5229C81.283 62.5244 80.9731 62.5244 80.6632 62.5244Z" fill="#1D1E2C"/>
<path d="M78.2695 58.5025C78.2756 59.9939 79.048 61.0945 80.2371 61.4487C81.24 61.7463 82.4414 61.5616 83.197 60.6167C83.2351 60.5694 83.2733 60.5221 83.3161 60.4778C83.4275 60.3588 83.4809 60.3618 83.5954 60.4717C83.6687 60.5435 83.6595 60.6 83.6015 60.6763C83.0886 61.3556 82.4139 61.7784 81.5728 61.9036C80.6767 62.0364 79.8555 61.8227 79.1365 61.2701C78.4297 60.7282 78.042 60.0016 77.9489 59.1162C77.8665 58.3362 78.0222 57.6111 78.4633 56.9608C79.0098 56.1533 79.7929 55.7274 80.7515 55.6175C81.7636 55.5015 82.6276 55.8174 83.3405 56.5441C83.4489 56.654 83.5374 56.7822 83.6366 56.9013C83.6946 56.9699 83.6671 57.0203 83.6076 57.0676C83.5496 57.115 83.5038 57.2004 83.4076 57.1241C83.3359 57.0676 83.2825 56.999 83.2229 56.9318C82.8077 56.4708 82.3131 56.1441 81.6964 56.0144C80.7302 55.8113 79.8753 56.0449 79.1625 56.7089C78.5885 57.2432 78.2939 57.9301 78.2695 58.5025Z" fill="#1D1E2C"/>
<path d="M80.9922 61.3493C79.7725 61.3493 78.6551 60.296 78.5391 58.9741C78.4262 57.6888 79.3008 56.5317 80.5007 56.2539C81.4853 56.0249 82.5019 56.3806 83.0652 57.1606C83.0789 57.1805 83.0957 57.1972 83.1049 57.2186C83.1278 57.2751 83.2224 57.3392 83.1171 57.3926C83.0331 57.4354 82.9431 57.5377 82.8377 57.4018C82.4866 56.9469 82.0165 56.6966 81.4562 56.5821C80.1847 56.3241 79.0627 57.3239 78.9009 58.3971C78.7147 59.6381 79.5161 60.7647 80.7525 60.957C81.56 61.0822 82.2378 60.8074 82.7721 60.1892C82.911 60.0289 82.9782 60.0106 83.0926 60.1113C83.172 60.1815 83.1537 60.2441 83.1049 60.3189C82.8652 60.6838 82.5324 60.9356 82.1416 61.1127C81.8043 61.2654 81.4517 61.3539 80.9922 61.3493Z" fill="#1D1E2C"/>
<path d="M81.0552 56.7966C81.6963 56.7966 82.1879 57.0408 82.5787 57.4972C82.6382 57.5674 82.7145 57.6438 82.6 57.7338C82.5069 57.8086 82.4336 57.8392 82.3329 57.7201C81.7452 57.024 80.7499 57.0393 80.2126 57.3995C79.6371 57.7857 79.373 58.436 79.5196 59.1428C79.6478 59.7564 80.179 60.2693 80.8217 60.3686C81.4185 60.4602 81.9192 60.2495 82.3268 59.816C82.4077 59.7305 82.4687 59.6725 82.5771 59.7778C82.6763 59.8755 82.6855 59.9289 82.5741 60.0511C82.0184 60.6632 81.333 60.8876 80.5408 60.6494C79.7409 60.4083 79.2585 59.848 79.144 59.0176C78.996 57.946 79.7272 56.992 80.7972 56.8164C80.8949 56.7996 80.9941 56.7996 81.0552 56.7966Z" fill="#1D1E2C"/>
<path d="M84.6044 62.5243C84.6014 62.4831 84.5968 62.4404 84.5968 62.3976C84.5968 59.9644 84.5968 57.5297 84.5938 55.0949C84.5938 54.9606 84.6334 54.9132 84.7693 54.9148C84.9052 54.9163 84.9189 54.988 84.9219 55.0934C84.9784 57.377 84.9479 59.6606 84.9418 61.9443C84.9418 62.0847 84.9235 62.2252 84.9235 62.3656C84.9235 62.4557 84.8884 62.506 84.8014 62.5228C84.7342 62.5243 84.6701 62.5243 84.6044 62.5243Z" fill="#1D1E2C"/>
<path d="M85.8672 58.7247C85.8672 57.5203 85.8672 56.3144 85.8672 55.11C85.8672 54.9268 85.9039 54.8994 86.0855 54.9207C86.1542 54.9284 86.1802 54.9604 86.1893 55.0276C86.2122 55.1955 86.2107 55.3649 86.2138 55.5328C86.255 57.5203 86.2458 59.5078 86.2321 61.4953C86.2305 61.767 86.2199 62.0388 86.2122 62.3105C86.2077 62.4967 86.1939 62.4982 86.0229 62.5089C85.8596 62.5196 85.8672 62.4204 85.8672 62.312C85.8688 61.1152 85.8672 59.92 85.8672 58.7247Z" fill="#1D1E2C"/>
<path d="M86.4883 58.7021C86.4883 57.6015 86.4883 56.4993 86.4898 55.3972C86.4898 55.2903 86.502 55.182 86.5127 55.0751C86.5219 54.9744 86.5799 54.9255 86.6821 54.927C86.7875 54.9286 86.8058 54.9911 86.8119 55.0843C86.8501 55.5895 86.8317 56.0963 86.8363 56.6016C86.8455 57.693 86.8669 58.7845 86.8516 59.8759C86.8409 60.6636 86.8501 61.4497 86.8287 62.2374C86.8272 62.2847 86.8211 62.3305 86.818 62.3779C86.8119 62.4557 86.7921 62.5122 86.6928 62.5061C86.5982 62.5 86.5249 62.4756 86.5127 62.3702C86.5005 62.2588 86.4898 62.1458 86.4898 62.0344C86.4883 60.9231 86.4883 59.8133 86.4883 58.7021Z" fill="#1D1E2C"/>
<path d="M85.5614 58.7192C85.5614 59.9145 85.5614 61.1097 85.5614 62.305C85.5614 62.479 85.5339 62.5065 85.3873 62.5065C85.2957 62.5065 85.2454 62.4653 85.2316 62.3783C85.2225 62.3141 85.2164 62.2485 85.2164 62.1829C85.2148 59.8717 85.2148 57.5622 85.2148 55.2511C85.2148 55.1946 85.2179 55.1381 85.224 55.0831C85.2393 54.9702 85.3095 54.9244 85.4194 54.929C85.54 54.932 85.5598 55.0038 85.5598 55.1076C85.5614 56.3104 85.5614 57.5148 85.5614 58.7192Z" fill="#1D1E2C"/>
<path d="M93.4325 62.5075C93.199 62.5105 93.2005 62.5105 93.1074 62.2755C92.2526 60.0941 91.3977 57.9112 90.5414 55.7298C90.5154 55.6657 90.5169 55.5512 90.4345 55.5558C90.3582 55.5604 90.3292 55.6657 90.3002 55.739C89.9735 56.5679 89.6453 57.3953 89.3217 58.2241C89.137 58.6989 88.9843 58.9889 88.8027 59.4637C88.7859 59.5079 88.7447 59.5354 88.6974 59.5354H88.5233C88.444 59.5354 88.389 59.456 88.418 59.3812C88.992 57.9158 89.5354 56.6351 90.1078 55.1681C90.1552 55.0475 90.2055 54.933 90.346 54.8964H90.4589C90.6055 54.8949 90.6574 54.9895 90.7062 55.1131C91.6481 57.522 92.5945 59.9308 93.5394 62.338C93.6035 62.4999 93.5989 62.5044 93.4325 62.5075Z" fill="#1D1E2C"/>
<path d="M92.5998 54.8972C92.7585 54.9369 92.8104 55.0682 92.8623 55.201C93.3188 56.3688 93.7828 57.535 94.2331 58.7058C94.6682 59.837 95.117 60.9635 95.5642 62.0901C95.6054 62.1939 95.6329 62.3038 95.6665 62.4106C95.6879 62.5068 95.6512 62.5404 95.5535 62.5251C95.4986 62.516 95.4406 62.5236 95.3856 62.5236C95.2986 62.4717 95.2696 62.3816 95.233 62.2946C94.5705 60.6872 93.9721 59.0554 93.3264 57.4419C93.0119 56.6542 92.7097 55.862 92.3983 55.0743C92.3357 54.914 92.4792 54.943 92.5418 54.8972C92.5616 54.8972 92.5799 54.8972 92.5998 54.8972Z" fill="#1D1E2C"/>
<path d="M92.374 60.8139C92.3679 60.8994 92.3344 60.9483 92.2397 60.959C91.9634 60.9925 91.6871 60.9712 91.4124 60.9758C91.3406 60.9773 90.904 60.9773 90.3545 60.9758C90.2263 60.9758 90.0919 60.9758 89.9546 60.9758C89.8584 60.9758 89.7607 60.9758 89.663 60.9758C89.5256 60.9758 89.3882 60.9758 89.2524 60.9742C89.231 60.9742 89.1898 60.9742 89.1425 60.9742C89.028 60.9742 88.9257 61.0429 88.8814 61.1483C88.8662 61.1849 88.854 61.2139 88.8509 61.2246C88.8051 61.3421 88.7593 61.4581 88.715 61.5757C88.625 61.8092 88.5364 62.0443 88.4479 62.2794C88.4128 62.374 88.367 62.458 88.2907 62.5251H88.1502C87.9625 62.461 87.9625 62.461 88.0357 62.2763C88.1273 62.0428 88.2189 61.8092 88.309 61.5772C88.3548 61.4597 88.4006 61.3436 88.4464 61.2261C88.48 61.1421 88.512 61.0582 88.5441 60.9742C88.5761 60.8918 88.5914 60.8582 88.6219 60.7758C88.6784 60.6231 88.8234 60.6018 88.9578 60.6018H89.8065C89.9057 60.6018 90.0034 60.6018 90.098 60.6018H90.498C91.0109 60.6018 91.4108 60.6018 91.4856 60.6018C91.7146 60.6018 91.9451 60.5987 92.1741 60.6033C92.3252 60.6063 92.3847 60.6766 92.374 60.8139Z" fill="#1D1E2C"/>
<path d="M90.5985 56.7813C90.223 57.7369 89.8765 58.5078 89.501 59.4634C89.4842 59.5061 89.443 59.5351 89.3957 59.5351H89.2323C89.1529 59.5351 89.098 59.4557 89.127 59.3809C89.5422 58.32 89.9284 57.4453 90.3451 56.3844C90.3696 56.3234 90.368 56.2196 90.4474 56.2165C90.5253 56.2134 90.5588 56.3081 90.594 56.3722C90.6672 56.5065 90.652 56.6454 90.5985 56.7813Z" fill="#1D1E2C"/>
<path d="M90.9617 57.6751C90.722 58.2811 90.5114 58.7009 90.2732 59.3069C90.2519 59.3588 90.232 59.4122 90.2106 59.4657C90.1939 59.5084 90.1526 59.5374 90.1053 59.5374H89.9374C89.858 59.5374 89.8031 59.458 89.8321 59.3832C90.1328 58.6139 90.403 58.0292 90.7052 57.2599C90.7235 57.2126 90.7297 57.1454 90.7831 57.1332C90.8441 57.121 90.8792 57.182 90.9144 57.2248C91.0304 57.3637 91.0243 57.5163 90.9617 57.6751Z" fill="#1D1E2C"/>
<path d="M89.9052 61.7012C89.9845 61.7012 90.0395 61.7806 90.0105 61.8539C89.954 61.9974 89.899 62.1409 89.8426 62.2844C89.809 62.3729 89.7678 62.4553 89.6991 62.5225H89.5586C89.38 62.4477 89.3785 62.4477 89.4518 62.263C89.5159 62.0996 89.58 61.9363 89.6441 61.7715C89.6609 61.7287 89.7021 61.6997 89.7495 61.6997L89.9052 61.7012Z" fill="#1D1E2C"/>
<path d="M91.2939 58.6106C91.155 58.9571 91.0481 59.1174 90.9092 59.4639C90.8924 59.5067 90.8512 59.5341 90.8054 59.5341H90.6405C90.5611 59.5341 90.5062 59.4548 90.5352 59.38C90.7184 58.9129 90.871 58.632 91.0542 58.1649C91.0725 58.116 91.071 58.0366 91.1412 58.0351C91.1992 58.0336 91.2313 58.0962 91.2633 58.142C91.3702 58.2916 91.358 58.4488 91.2939 58.6106Z" fill="#1D1E2C"/>
<path d="M94.0454 62.5073C93.9447 62.5302 93.8867 62.4768 93.844 62.3669C92.8991 59.9489 91.9511 57.531 91.0047 55.1145C90.9833 55.0611 90.9238 54.997 91.0199 54.9466C91.1222 54.8947 91.2871 54.91 91.3436 54.9878C91.3787 55.0367 91.4031 55.0932 91.426 55.1496C91.9511 56.4533 92.4609 57.7645 92.9693 59.0743C93.3555 60.0711 93.7524 61.0633 94.1431 62.057C94.1737 62.1349 94.2057 62.2142 94.2271 62.2952C94.276 62.4814 94.2531 62.5073 94.0454 62.5073Z" fill="#1D1E2C"/>
<path d="M94.7585 62.505C94.6547 62.5279 94.5921 62.476 94.5463 62.36C93.6045 59.9466 92.658 57.5332 91.7131 55.1198C91.6933 55.0679 91.6414 55.0114 91.7192 54.9595C91.8139 54.8985 91.9787 54.9046 92.0474 54.9779C92.0993 55.0343 92.1238 55.1061 92.1512 55.1763C92.5084 56.0983 92.8519 57.0264 93.2228 57.9423C93.7861 59.3314 94.2975 60.7434 94.876 62.1264C94.902 62.186 94.9249 62.2486 94.9371 62.3127C94.9737 62.4913 94.96 62.505 94.7585 62.505Z" fill="#1D1E2C"/>
<path d="M92.5402 61.5738C92.1937 61.5769 91.8472 61.5753 91.5007 61.5753C91.3694 61.5753 90.7985 61.5753 90.1192 61.5753H89.5635C89.4826 61.5753 89.4094 61.6257 89.3804 61.7005C89.301 61.9035 89.2231 62.105 89.1437 62.3081C89.1117 62.392 89.0735 62.4714 88.9941 62.5233H88.8812C88.8537 62.5141 88.8293 62.5034 88.8018 62.4973C88.695 62.476 88.6827 62.4195 88.7209 62.3248C88.8217 62.0745 88.9193 61.8257 89.017 61.5738C89.046 61.499 89.0766 61.4227 89.1056 61.3479C89.1346 61.2716 89.2079 61.2227 89.2888 61.2227H89.8566C89.9894 61.2227 90.1238 61.2227 90.2566 61.2227C91.206 61.2227 92.0914 61.2227 92.3509 61.2242C92.5127 61.2242 92.6318 61.3387 92.6532 61.5005C92.6654 61.6059 92.5845 61.5738 92.5402 61.5738Z" fill="#1D1E2C"/>
<path d="M91.9711 60.2824C91.8123 60.284 91.6536 60.2824 91.4933 60.2824H88.6647C88.5838 60.2824 88.5105 60.3328 88.4815 60.4091C88.4571 60.4732 88.4327 60.5374 88.4067 60.6015C88.3594 60.7251 88.3121 60.8488 88.2632 60.9709C88.2312 61.0548 88.1976 61.1388 88.1655 61.2228C88.1197 61.3403 88.0739 61.4578 88.0281 61.5738C87.935 61.812 87.8389 62.0486 87.7442 62.2852C87.7045 62.3829 87.6618 62.4745 87.5595 62.5218H87.4465C87.2527 62.4653 87.2527 62.4653 87.3198 62.2928C87.4145 62.0532 87.5076 61.8135 87.6022 61.5738C87.648 61.4563 87.6938 61.3403 87.7396 61.2228C87.7732 61.1388 87.8068 61.0533 87.8389 60.9678C87.8862 60.8457 87.935 60.7236 87.9823 60.6015C88.0236 60.4946 88.0663 60.3878 88.1075 60.2824C88.138 60.2061 88.1671 60.1298 88.1976 60.0535C88.2266 59.9787 88.2999 59.9283 88.3808 59.9283C88.4662 59.9283 88.5624 59.9283 88.6662 59.9283C88.7578 59.9283 88.854 59.9283 88.9547 59.9283C89.0829 59.9283 89.2203 59.9283 89.3608 59.9283C89.46 59.9283 89.5592 59.9283 89.6615 59.9283C89.7973 59.9283 89.9347 59.9283 90.0721 59.9283H90.3652C90.5041 59.9283 90.64 59.9283 90.7697 59.9283C91.3345 59.9283 91.7848 59.9283 91.878 59.9298C91.9818 59.9313 92.0718 59.9649 92.113 60.0733C92.168 60.2168 92.1253 60.2809 91.9711 60.2824Z" fill="#1D1E2C"/>
<path d="M57.3286 59.2179C57.7209 59.2179 58.0567 59.0805 58.333 58.8057C58.6093 58.5294 58.7482 58.1646 58.7482 57.7097C58.7482 57.3403 58.6063 57.0121 58.3193 56.7236C58.0338 56.4351 57.7026 56.29 57.3271 56.29H54.671C54.4359 56.29 54.2466 56.4793 54.2466 56.7144V57.6822C54.2466 57.7707 54.3183 57.841 54.4054 57.841H54.4084C54.4969 57.841 54.5672 57.7692 54.5672 57.6822V56.7709C54.5672 56.6823 54.6389 56.6121 54.7259 56.6121H57.3255C57.611 56.6121 57.8659 56.7251 58.0888 56.9495C58.3117 57.1739 58.4231 57.4288 58.4231 57.7112C58.4231 58.0898 58.3162 58.3829 58.104 58.5889C57.8919 58.7965 57.6324 58.8988 57.3255 58.8988H54.0298C53.7948 58.8988 53.6055 59.0881 53.6055 59.3232V62.2403C53.6055 62.3289 53.6772 62.3991 53.7642 62.3991H53.7673C53.8558 62.3991 53.926 62.3273 53.926 62.2403V59.3781C53.926 59.2896 53.9978 59.2194 54.0848 59.2194H57.3286V59.2179Z" fill="#1D1E2C"/>
<path d="M57.3282 58.5751C57.8457 58.5751 58.1052 58.2866 58.1052 57.708C58.1052 57.5004 58.0289 57.3188 57.8747 57.1631C57.7221 57.0074 57.5389 56.931 57.3282 56.931H55.3148C55.0797 56.931 54.8904 57.1203 54.8904 57.3554V57.6805C54.8904 57.7691 54.9622 57.8393 55.0492 57.8393H55.0522C55.1408 57.8393 55.211 57.7675 55.211 57.6805V57.4119C55.211 57.3233 55.2827 57.2531 55.3697 57.2531H57.3267C57.4549 57.2531 57.5633 57.2974 57.6503 57.3829C57.7373 57.4699 57.7816 57.5783 57.7816 57.7095C57.7816 57.9126 57.7419 58.053 57.661 58.1339C57.5801 58.2148 57.4687 58.2545 57.3267 58.2545H53.3853C53.1517 58.2545 52.9609 58.4438 52.9609 58.6789V62.2387C52.9609 62.3272 53.0327 62.3974 53.1197 62.3974H53.1227C53.2113 62.3974 53.2815 62.3257 53.2815 62.2387V58.7338C53.2815 58.6453 53.3532 58.5751 53.4403 58.5751H57.3282Z" fill="#1D1E2C"/>
<path d="M57.3286 59.8595C57.6949 59.8595 58.0354 59.768 58.3483 59.5848C58.6627 59.4016 58.9146 59.1436 59.1054 58.8124C59.2962 58.4796 59.3909 58.1117 59.3909 57.7072C59.3909 57.35 59.2962 57.0126 59.107 56.6936C58.9177 56.3746 58.6643 56.1196 58.3452 55.9304C58.0262 55.7395 57.6873 55.6449 57.3271 55.6449H54.0298C53.7948 55.6449 53.6055 55.8342 53.6055 56.0693V57.6797C53.6055 57.7683 53.6772 57.8385 53.7642 57.8385H53.7673C53.8558 57.8385 53.926 57.7667 53.926 57.6797V56.1257C53.926 56.0372 53.9978 55.967 54.0863 55.967H57.3286C57.7896 55.967 58.1956 56.1425 58.5452 56.4936C58.8948 56.8447 59.0688 57.2492 59.0688 57.7087C59.0688 58.0629 58.9879 58.3819 58.8261 58.6643C58.6643 58.9467 58.4506 59.1635 58.188 59.3146C57.9239 59.4642 57.6369 59.5405 57.3286 59.5405H54.671C54.4359 59.5405 54.2466 59.7298 54.2466 59.9649V62.2378C54.2466 62.3264 54.3183 62.3966 54.4054 62.3966H54.4084C54.4969 62.3966 54.5672 62.3248 54.5672 62.2378V60.0183C54.5672 59.9298 54.6389 59.8595 54.7259 59.8595H57.3286Z" fill="#1D1E2C"/>
<path d="M59.6638 56.3727C59.4165 55.956 59.0852 55.6232 58.6685 55.3744C58.2518 55.1256 57.8045 55.002 57.3282 55.002H53.3853C53.1517 55.002 52.9609 55.1912 52.9609 55.4263V57.6794C52.9609 57.768 53.0327 57.8382 53.1197 57.8382H53.1227C53.2113 57.8382 53.2815 57.7664 53.2815 57.6794V55.4828C53.2815 55.3943 53.3532 55.324 53.4403 55.324H57.3267C57.7465 55.324 58.1403 55.434 58.5082 55.6522C58.8761 55.8705 59.1692 56.1651 59.386 56.533C59.6042 56.9009 59.7126 57.2932 59.7126 57.7084C59.7126 58.0565 59.6485 58.3847 59.5203 58.693C59.3921 59.0014 59.2211 59.2624 59.0043 59.4792C58.7876 59.6959 58.5342 59.8669 58.2426 59.9921C57.951 60.1188 57.6457 60.1813 57.3267 60.1813H55.3148C55.0797 60.1813 54.8904 60.3706 54.8904 60.6057V62.236C54.8904 62.3245 54.9622 62.3948 55.0492 62.3948H55.0522C55.1408 62.3948 55.211 62.323 55.211 62.236V60.6622C55.211 60.5737 55.2827 60.5034 55.3697 60.5034H57.3267C57.69 60.5034 58.035 60.4393 58.3632 60.3096C58.6914 60.1798 58.9784 59.9982 59.2257 59.7631C59.473 59.528 59.6684 59.2334 59.8149 58.8762C59.9614 58.5205 60.0332 58.1313 60.0332 57.7084C60.0332 57.2352 59.9095 56.7895 59.6638 56.3727Z" fill="#1D1E2C"/>
<path d="M56.4009 121.128C57.0809 121.128 57.6609 120.888 58.1409 120.388C58.6209 119.888 58.8609 119.288 58.8609 118.588C58.8609 117.908 58.6209 117.328 58.1409 116.848C57.6609 116.368 57.0809 116.128 56.4009 116.128C55.7009 116.128 55.1009 116.368 54.6009 116.848C54.1009 117.328 53.8609 117.908 53.8609 118.588C53.8609 119.288 54.1009 119.888 54.6009 120.388C55.1009 120.888 55.7009 121.128 56.4009 121.128ZM67.1978 121.128C67.8778 121.128 68.4578 120.888 68.9378 120.388C69.4178 119.888 69.6578 119.288 69.6578 118.588C69.6578 117.908 69.4178 117.328 68.9378 116.848C68.4578 116.368 67.8778 116.128 67.1978 116.128C66.4978 116.128 65.8978 116.368 65.3978 116.848C64.8978 117.328 64.6578 117.908 64.6578 118.588C64.6578 119.288 64.8978 119.888 65.3978 120.388C65.8978 120.888 66.4978 121.128 67.1978 121.128ZM77.9947 121.128C78.6747 121.128 79.2547 120.888 79.7347 120.388C80.2147 119.888 80.4547 119.288 80.4547 118.588C80.4547 117.908 80.2147 117.328 79.7347 116.848C79.2547 116.368 78.6747 116.128 77.9947 116.128C77.2947 116.128 76.6947 116.368 76.1947 116.848C75.6947 117.328 75.4547 117.908 75.4547 118.588C75.4547 119.288 75.6947 119.888 76.1947 120.388C76.6947 120.888 77.2947 121.128 77.9947 121.128ZM56.4009 149.128C57.0809 149.128 57.6609 148.888 58.1409 148.388C58.6209 147.888 58.8609 147.288 58.8609 146.588C58.8609 145.908 58.6209 145.328 58.1409 144.848C57.6609 144.368 57.0809 144.128 56.4009 144.128C55.7009 144.128 55.1009 144.368 54.6009 144.848C54.1009 145.328 53.8609 145.908 53.8609 146.588C53.8609 147.288 54.1009 147.888 54.6009 148.388C55.1009 148.888 55.7009 149.128 56.4009 149.128Z" fill="#1D1E2C"/>
<path d="M122.547 121.127C123.227 121.127 123.807 120.887 124.287 120.387C124.767 119.887 125.007 119.287 125.007 118.587C125.007 117.907 124.767 117.327 124.287 116.847C123.807 116.367 123.227 116.127 122.547 116.127C121.847 116.127 121.247 116.367 120.747 116.847C120.247 117.327 120.007 117.907 120.007 118.587C120.007 119.287 120.247 119.887 120.747 120.387C121.247 120.887 121.847 121.127 122.547 121.127ZM133.344 121.127C134.024 121.127 134.604 120.887 135.084 120.387C135.564 119.887 135.804 119.287 135.804 118.587C135.804 117.907 135.564 117.327 135.084 116.847C134.604 116.367 134.024 116.127 133.344 116.127C132.644 116.127 132.044 116.367 131.544 116.847C131.044 117.327 130.804 117.907 130.804 118.587C130.804 119.287 131.044 119.887 131.544 120.387C132.044 120.887 132.644 121.127 133.344 121.127ZM144.141 121.127C144.821 121.127 145.401 120.887 145.881 120.387C146.361 119.887 146.601 119.287 146.601 118.587C146.601 117.907 146.361 117.327 145.881 116.847C145.401 116.367 144.821 116.127 144.141 116.127C143.441 116.127 142.841 116.367 142.341 116.847C141.841 117.327 141.601 117.907 141.601 118.587C141.601 119.287 141.841 119.887 142.341 120.387C142.841 120.887 143.441 121.127 144.141 121.127ZM122.547 149.127C123.227 149.127 123.807 148.887 124.287 148.387C124.767 147.887 125.007 147.287 125.007 146.587C125.007 145.907 124.767 145.327 124.287 144.847C123.807 144.367 123.227 144.127 122.547 144.127C121.847 144.127 121.247 144.367 120.747 144.847C120.247 145.327 120.007 145.907 120.007 146.587C120.007 147.287 120.247 147.887 120.747 148.387C121.247 148.887 121.847 149.127 122.547 149.127Z" fill="#1D1E2C"/>
<path d="M188.696 121.127C189.376 121.127 189.956 120.887 190.436 120.387C190.916 119.887 191.156 119.287 191.156 118.587C191.156 117.907 190.916 117.327 190.436 116.847C189.956 116.367 189.376 116.127 188.696 116.127C187.996 116.127 187.396 116.367 186.896 116.847C186.396 117.327 186.156 117.907 186.156 118.587C186.156 119.287 186.396 119.887 186.896 120.387C187.396 120.887 187.996 121.127 188.696 121.127ZM199.493 121.127C200.173 121.127 200.753 120.887 201.233 120.387C201.713 119.887 201.953 119.287 201.953 118.587C201.953 117.907 201.713 117.327 201.233 116.847C200.753 116.367 200.173 116.127 199.493 116.127C198.793 116.127 198.193 116.367 197.693 116.847C197.193 117.327 196.953 117.907 196.953 118.587C196.953 119.287 197.193 119.887 197.693 120.387C198.193 120.887 198.793 121.127 199.493 121.127ZM210.29 121.127C210.97 121.127 211.55 120.887 212.03 120.387C212.51 119.887 212.75 119.287 212.75 118.587C212.75 117.907 212.51 117.327 212.03 116.847C211.55 116.367 210.97 116.127 210.29 116.127C209.59 116.127 208.99 116.367 208.49 116.847C207.99 117.327 207.75 117.907 207.75 118.587C207.75 119.287 207.99 119.887 208.49 120.387C208.99 120.887 209.59 121.127 210.29 121.127ZM188.696 149.127C189.376 149.127 189.956 148.887 190.436 148.387C190.916 147.887 191.156 147.287 191.156 146.587C191.156 145.907 190.916 145.327 190.436 144.847C189.956 144.367 189.376 144.127 188.696 144.127C187.996 144.127 187.396 144.367 186.896 144.847C186.396 145.327 186.156 145.907 186.156 146.587C186.156 147.287 186.396 147.887 186.896 148.387C187.396 148.887 187.996 149.127 188.696 149.127Z" fill="#1D1E2C"/>
<path d="M254.842 121.127C255.522 121.127 256.102 120.887 256.582 120.387C257.062 119.887 257.302 119.287 257.302 118.587C257.302 117.907 257.062 117.327 256.582 116.847C256.102 116.367 255.522 116.127 254.842 116.127C254.142 116.127 253.542 116.367 253.042 116.847C252.542 117.327 252.302 117.907 252.302 118.587C252.302 119.287 252.542 119.887 253.042 120.387C253.542 120.887 254.142 121.127 254.842 121.127ZM265.639 121.127C266.319 121.127 266.899 120.887 267.379 120.387C267.859 119.887 268.099 119.287 268.099 118.587C268.099 117.907 267.859 117.327 267.379 116.847C266.899 116.367 266.319 116.127 265.639 116.127C264.939 116.127 264.339 116.367 263.839 116.847C263.339 117.327 263.099 117.907 263.099 118.587C263.099 119.287 263.339 119.887 263.839 120.387C264.339 120.887 264.939 121.127 265.639 121.127ZM276.436 121.127C277.116 121.127 277.696 120.887 278.176 120.387C278.656 119.887 278.896 119.287 278.896 118.587C278.896 117.907 278.656 117.327 278.176 116.847C277.696 116.367 277.116 116.127 276.436 116.127C275.736 116.127 275.136 116.367 274.636 116.847C274.136 117.327 273.896 117.907 273.896 118.587C273.896 119.287 274.136 119.887 274.636 120.387C275.136 120.887 275.736 121.127 276.436 121.127ZM254.842 149.127C255.522 149.127 256.102 148.887 256.582 148.387C257.062 147.887 257.302 147.287 257.302 146.587C257.302 145.907 257.062 145.327 256.582 144.847C256.102 144.367 255.522 144.127 254.842 144.127C254.142 144.127 253.542 144.367 253.042 144.847C252.542 145.327 252.302 145.907 252.302 146.587C252.302 147.287 252.542 147.887 253.042 148.387C253.542 148.887 254.142 149.127 254.842 149.127Z" fill="#1D1E2C"/>
<path fill-rule="evenodd" clip-rule="evenodd" d="M281.953 53.2578C282.16 53.0508 282.16 52.7153 281.953 52.5083C281.746 52.3013 281.41 52.3013 281.203 52.5083L269.896 63.8155C269.689 64.0224 269.689 64.358 269.896 64.565C270.103 64.772 270.439 64.772 270.646 64.565L272.791 62.4202C273.722 62.8498 274.788 63.1302 275.925 63.1302C277.775 63.1302 279.438 62.3872 280.637 61.4671C281.237 61.0064 281.73 60.4948 282.075 59.9969C282.414 59.5085 282.638 58.9949 282.638 58.5366C282.638 58.0784 282.414 57.5648 282.075 57.0764C281.73 56.5785 281.237 56.0669 280.637 55.6062C280.446 55.4594 280.243 55.3172 280.029 55.1817L281.953 53.2578ZM278.136 57.0752L277.36 57.8511C277.459 58.0587 277.515 58.2912 277.515 58.5366C277.515 59.4148 276.803 60.1267 275.925 60.1267C275.679 60.1267 275.447 60.0711 275.239 59.9718L274.463 60.7477C274.882 61.0252 275.384 61.1868 275.925 61.1868C277.388 61.1868 278.575 60.0003 278.575 58.5366C278.575 57.9965 278.413 57.4941 278.136 57.0752Z" fill="#1D1E2C"/>
<path d="M276.358 55.9218C276.442 55.9356 276.529 55.911 276.589 55.8508L277.853 54.5865C277.985 54.4541 277.93 54.2295 277.749 54.182C277.17 54.0303 276.558 53.9431 275.925 53.9431C274.075 53.9431 272.411 54.6861 271.212 55.6062C270.612 56.0669 270.119 56.5785 269.774 57.0764C269.435 57.5648 269.211 58.0784 269.211 58.5366C269.211 58.9949 269.435 59.5085 269.774 59.9969C270.058 60.4071 270.443 60.8266 270.905 61.2192C271.002 61.3017 271.146 61.2935 271.236 61.2034L273.239 59.2008C273.299 59.1406 273.324 59.0541 273.31 58.9701C273.287 58.829 273.274 58.6842 273.274 58.5366C273.274 57.073 274.461 55.8865 275.925 55.8865C276.072 55.8865 276.217 55.8986 276.358 55.9218Z" fill="#1D1E2C"/>
</g>
<defs>
<filter id="filter0_d" x="0" y="0.00012207" width="336.588" height="245" filterUnits="userSpaceOnUse" color-interpolation-filters="sRGB">
<feFlood flood-opacity="0" result="BackgroundImageFix"/>
<feColorMatrix in="SourceAlpha" type="matrix" values="0 0 0 0 0 0 0 0 0 0 0 0 0 0 0 0 0 0 127 0" result="hardAlpha"/>
<feOffset dy="4"/>
<feGaussianBlur stdDeviation="18"/>
<feColorMatrix type="matrix" values="0 0 0 0 0 0 0 0 0 0 0 0 0 0 0 0 0 0 0.05 0"/>
<feBlend mode="normal" in2="BackgroundImageFix" result="effect1_dropShadow"/>
<feBlend mode="normal" in="SourceGraphic" in2="effect1_dropShadow" result="shape"/>
</filter>
</defs>
</svg>
