<svg width="384" height="276" viewBox="0 0 384 276" fill="none" xmlns="http://www.w3.org/2000/svg">
<mask id="mask0" style="mask-type:alpha" maskUnits="userSpaceOnUse" x="36" y="32" width="312" height="204">
<rect x="36" y="32" width="312" height="204" rx="20" fill="#1D1E2C"/>
</mask>
<g mask="url(#mask0)">
<g filter="url(#filter0_d)">
<rect x="36" y="32" width="312" height="204" rx="20" fill="#1D1E2C"/>
</g>
<path opacity="0.12" d="M151 208.394C151 197.708 148.698 188.039 143.583 181.932C139.746 176.843 138.723 174.299 132.84 170.482C126.958 166.411 126.19 165.393 119.029 162.34C115.448 160.559 112.89 159.541 111.612 159.032L103.683 155.979L96.5212 153.18H96.2654V123.156C102.66 125.446 107.008 130.534 109.565 138.422L148.442 116.794C138.212 94.6578 120.819 82.19 96.2654 79.3911V57H78.3615V78.8822C62.5038 80.1544 49.4596 85.7522 39.2288 95.4211C28.9981 104.836 23.8827 117.558 23.8827 133.588C23.8827 149.872 28.9981 162.086 39.9962 170.991C50.9942 179.388 59.9462 183.968 76.0596 189.82L78.3615 190.583V220.862C68.3865 218.318 61.4808 211.448 57.6442 200.507L18 222.643C26.4404 247.07 48.4365 262.082 78.3615 264.118V286H96.2654V263.863C129.771 260.047 151 240.2 151 208.394ZM68.3865 133.842C68.3865 127.736 71.7115 123.919 78.3615 122.138V145.292C71.7115 141.984 68.3865 138.168 68.3865 133.842ZM96.2654 197.708C103.171 200.761 106.496 204.578 106.496 209.158C106.496 215.01 103.171 218.827 96.2654 220.608V197.708Z" fill="white"/>
<g opacity="0.8">
<path d="M379.001 36.3486V35.7406C369.926 43.6603 363.238 61.4606 361.87 81.3891C361.505 86.7855 359.483 90.2665 356.017 91.4674C353.464 92.349 350.256 91.9842 346.73 90.3881C343.218 88.792 339.722 86.147 336.621 82.7268C335.435 81.4195 333.93 79.9298 332.319 78.3489C324.855 71.0068 314.656 60.9438 319.337 52.0208C321.906 47.1413 326.756 46.2292 331.878 45.2716C337.077 44.2987 342.458 43.2954 345.042 37.7471C345.818 36.075 346.365 34.1444 346.684 31.9555H345.757C345.453 34.0076 344.936 35.8014 344.206 37.3671C341.82 42.4898 336.895 43.4171 331.696 44.3899C326.573 45.3476 321.283 46.3356 318.517 51.6104C314.868 58.5724 319.474 65.9601 325.22 72.3749C329.279 77.4673 334.356 82.134 337.32 85.5694C347.505 97.3958 362.888 101.044 364.804 85.3414C366.704 69.882 371.994 55.7907 378.986 46.8981L379.001 36.3486Z" fill="#FFEEA7"/>
<path d="M213.6 63.7261C213.341 65.5046 212.794 67.3592 212.216 69.3201C211.228 72.6795 210.225 76.1149 210.559 79.4439C210.271 82.4081 210.499 85.3267 211.973 88.0021C213.736 91.1943 218.008 92.2432 221.155 90.9207C231.02 86.7708 231.537 71.9195 242.786 69.8673H242.801C247.498 68.5904 252.864 71.2354 256.375 74.1388C262.319 79.0791 267.214 88.0781 268.217 96.2106C268.202 96.5755 268.202 96.9555 268.186 97.3203C268.095 100.573 268.004 104.176 268.247 107.748C268.278 113.829 268.87 120.152 271.865 124.986C276.577 132.617 288.677 130.489 286.534 123.314C286.792 122.98 287.02 122.615 287.172 122.235C287.796 120.745 287.932 118.206 284.968 114.68C281.761 110.849 280.317 107.277 280.393 103.446C280.469 100.072 281.73 96.4235 284.467 91.6199C286.899 87.3637 290.486 83.2746 294.302 78.9575C300.169 72.2843 306.25 65.3678 307.967 57.5545C309.016 52.7662 308.864 47.2787 307.496 41.2287C306.827 38.2645 305.87 35.1483 304.623 31.9257H303.65C304.942 35.2243 305.93 38.4013 306.614 41.4263C307.952 47.3395 308.104 52.7054 307.086 57.3569C305.414 64.9422 299.424 71.7674 293.618 78.3647C289.787 82.7274 286.154 86.8468 283.676 91.1791C280.849 96.1194 279.557 99.9045 279.481 103.431C279.39 107.505 280.91 111.26 284.269 115.273C286.382 117.796 287.081 120.076 286.321 121.885C285.637 123.496 283.828 124.576 281.457 124.758C278.766 124.971 274.829 123.892 272.534 120.198C268.627 113.889 268.886 104.708 269.083 97.3355C269.098 96.5755 269.129 95.8306 269.144 95.101C269.342 86.2844 264.097 75.1421 256.953 69.2137C253.365 66.2343 247.817 63.5285 242.968 64.851H242.953C238.104 66.2191 234.835 71.2506 231.689 76.1301C229.409 79.6416 227.265 82.9554 224.62 84.8707C222.097 86.71 219.467 87.4397 217.233 86.938C215.348 86.5124 213.812 85.2659 212.672 83.2138C210.316 78.9727 211.73 74.1844 213.083 69.5633C213.676 67.572 214.223 65.6871 214.497 63.8477C215.272 58.5578 214.679 52.3254 212.84 46.3058C211.091 40.6206 208.31 35.5891 204.92 31.9409H203.658C207.215 35.5283 210.149 40.6966 211.958 46.5794C213.752 52.3862 214.344 58.6338 213.6 63.7261Z" fill="#FFEEA7"/>
<path d="M365.426 102.173C361.094 110.488 357.005 118.362 352.126 121.053C349.116 122.71 346.532 123.029 344.221 122.041C338.004 119.335 334.979 107.342 332.304 96.7616C330.297 88.7811 328.549 81.8951 325.722 79.1437C322.332 75.8451 318.714 74.553 314.974 75.2978C304.273 77.4108 295.7 95.3479 293.328 100.805C289.558 109.454 290.182 115.641 295.532 122.923C296.201 123.835 296.992 124.792 297.828 125.811C301.491 130.28 306.036 135.859 303.938 141.62C302.297 146.134 303.315 150.801 306.887 155.103C309.882 158.69 314.579 161.867 319.778 163.798C321.663 164.497 323.624 165.105 325.524 165.698C332.577 167.887 339.235 169.97 343.476 176.567C344.844 178.695 346.197 181.234 347.398 184H348.386C347.125 181.036 345.696 178.33 344.236 176.065C339.813 169.194 332.684 166.975 325.782 164.816C323.897 164.224 321.952 163.631 320.082 162.932C315.02 161.062 310.46 157.991 307.572 154.51C305.231 151.698 302.844 147.229 304.775 141.924C307.055 135.676 302.327 129.885 298.512 125.233C297.691 124.23 296.916 123.272 296.247 122.375C291.124 115.413 290.531 109.47 294.149 101.17C295.502 98.0689 298.36 92.0493 302.312 86.5466C306.675 80.4966 310.992 77.0156 315.126 76.1947C318.562 75.5259 321.906 76.7267 325.068 79.7973C327.713 82.3663 329.507 89.4804 331.407 96.9897C334.128 107.782 337.213 120.004 343.841 122.877C346.395 123.987 349.313 123.637 352.551 121.858C357.674 119.031 361.824 111.051 366.217 102.599C370.139 95.0591 374.167 87.337 378.986 83.1416V81.9559C373.772 86.1361 369.546 94.2383 365.426 102.173Z" fill="#FFEEA7"/>
<path d="M370.792 119.377C368.345 124.317 366.019 128.984 362.949 131.218C358.145 134.715 352.642 136.083 347.444 135.064C342.138 134.031 337.426 130.58 334.204 125.366C332.911 123.268 331.665 119.179 330.342 114.832C327.697 106.137 324.703 96.2866 319.504 94.9793C317.802 94.5537 316.266 94.7513 314.944 95.5721C311.402 97.7611 310.049 103.948 308.97 108.903C308.499 111.047 308.103 112.901 307.602 114.041C304.911 120.213 305.367 124.636 309.183 129.835C309.76 130.61 310.399 131.37 311.083 132.191C312.861 134.304 314.716 136.478 315.248 138.986C315.506 140.217 315.278 141.388 315.035 142.634C314.746 144.124 314.442 145.675 315.065 147.255C317.498 153.549 326.269 155.859 333.322 157.714C335.283 158.231 337.137 158.717 338.627 159.234C348.325 162.608 361.596 167.214 367.934 177.065C369.166 178.98 370.367 181.351 371.37 183.935H372.343C371.294 181.154 370.017 178.6 368.695 176.563C362.189 166.454 348.736 161.772 338.916 158.367C337.381 157.835 335.511 157.349 333.535 156.817C326.679 155.008 318.151 152.773 315.886 146.906C315.369 145.553 315.628 144.215 315.902 142.786C316.145 141.51 316.403 140.172 316.114 138.773C315.537 136.037 313.621 133.772 311.767 131.583C311.098 130.793 310.46 130.033 309.912 129.288C306.31 124.393 305.899 120.228 308.438 114.391C308.97 113.175 309.38 111.275 309.867 109.086C310.916 104.282 312.223 98.3235 315.43 96.3322C316.555 95.6329 317.802 95.4809 319.291 95.8457C324.004 97.0314 327.044 107.034 329.476 115.09C330.874 119.681 332.075 123.648 333.428 125.837C336.803 131.264 341.713 134.867 347.276 135.946C352.734 137.01 358.479 135.596 363.496 131.948C366.749 129.577 369.12 124.819 371.613 119.772C373.817 115.318 376.082 110.773 379.016 107.855V106.578C375.657 109.572 373.194 114.528 370.792 119.377Z" fill="#FFEEA7"/>
<path d="M372.419 135.4L371.963 135.78C366.172 140.507 359.62 145.858 351.746 143.38C349.8 142.772 347.9 141.754 346.076 140.781C342.048 138.638 337.883 136.418 332.851 138.273C329.796 139.398 328.99 140.994 328.838 142.149C328.61 144.003 329.917 146.01 332.517 147.773C336.454 150.449 341.166 151.65 345.726 152.805C347.93 153.367 350.211 153.945 352.324 154.675C360.836 157.639 372.1 161.545 379.016 169.131V167.808C371.918 160.542 360.958 156.727 352.628 153.823C350.469 153.078 348.174 152.486 345.954 151.923C341.47 150.783 336.849 149.597 333.033 147.013C330.769 145.463 329.568 143.73 329.75 142.255C329.902 140.978 331.088 139.899 333.17 139.124C337.822 137.406 341.622 139.443 345.65 141.587C347.52 142.575 349.451 143.608 351.472 144.247H351.487C359.833 146.861 366.582 141.343 372.556 136.479L373.012 136.099C373.164 135.977 373.377 135.795 373.635 135.582C375.596 133.956 377.39 132.542 379.016 131.356V130.216C376.934 131.706 374.851 133.378 373.042 134.883C372.784 135.111 372.571 135.278 372.419 135.4Z" fill="#FFEEA7"/>
<path d="M229.458 95.1906C227.773 99.388 227.193 103.197 227.806 105.916C228.679 109.787 231.657 111.917 234.546 113.965C235.576 114.71 236.661 115.484 237.608 116.318C240.082 118.501 241.369 121.118 242.737 123.893C244.164 126.784 245.627 129.77 248.541 132.193L248.607 132.234C250.172 133.183 251.628 133.825 252.933 134.16C258.274 136.488 264.431 136.589 266.481 131.301C269.057 124.637 259.898 117.168 257.53 111.421C254.306 103.62 258.778 95.9136 256.504 87.9142C254.879 82.1911 248.579 78.4816 246.002 78.874C245.692 78.9185 245.372 78.9957 245.064 79.0832C244.871 79.0909 244.688 79.1088 244.496 79.1379C241.855 79.5328 239.01 81.3127 236.255 84.2938C233.542 87.2087 231.074 91.1789 229.458 95.1906ZM243.56 123.473C242.215 120.74 240.823 117.923 238.215 115.616C237.234 114.752 236.138 113.967 235.076 113.213C232.208 111.164 229.496 109.216 228.701 105.709C227.528 100.527 231.292 90.9873 236.914 84.9024C239.524 82.0776 242.19 80.4017 244.618 80.0367C247.216 79.6435 249.244 81.9729 250.656 86.9192C251.63 90.3444 252.062 93.931 252.469 97.411C253.029 102.047 253.594 106.833 255.451 111.342C256.129 112.982 257.053 114.581 257.952 116.116C260.271 120.08 262.453 123.834 260.677 128.422C260.12 129.853 259.445 131.009 258.692 131.824C256.526 134.169 253.38 134.057 249.083 131.473C246.356 129.16 244.929 126.269 243.56 123.473Z" fill="#FFEEA7"/>
<path d="M337.837 56.7053C337.594 57.1005 337.411 57.5413 337.274 58.0126C336.423 60.992 337.305 64.5034 339.676 67.6348C342.443 71.283 346.638 73.6544 350.362 73.6544C350.758 73.6544 351.168 73.624 351.548 73.5784C353.19 73.3504 354.497 72.4991 355.455 71.0398C357.355 68.1212 357.4 63.1505 356.488 59.9431C355.956 58.0886 354.391 56.4013 352.08 55.2004C349.982 54.1059 347.398 53.4827 344.981 53.4827C341.652 53.4979 339.038 54.6683 337.837 56.7053ZM355.607 60.1863C356.352 62.7553 356.549 67.6652 354.679 70.5382C353.874 71.7694 352.779 72.4839 351.411 72.6663C351.062 72.7119 350.712 72.7423 350.347 72.7423C346.897 72.7423 342.975 70.523 340.391 67.0875C338.202 64.1842 337.381 60.9616 338.141 58.2558C338.247 57.8606 338.414 57.4957 338.612 57.1613C339.661 55.398 341.971 54.3947 344.981 54.3947C349.298 54.4099 354.588 56.6141 355.607 60.1863Z" fill="#FFEEA7"/>
<path d="M286.918 55.4081C287.05 54.9634 287.112 54.4904 287.123 53.9998C287.174 50.9016 285.413 47.738 282.312 45.3271C278.696 42.5192 274.029 41.3145 270.432 42.2784C270.05 42.3807 269.662 42.5163 269.307 42.6587C267.78 43.3039 266.737 44.4644 266.19 46.1219C265.11 49.4328 266.353 54.246 268.064 57.108C269.058 58.7616 271.007 59.9862 273.549 60.5482C275.859 61.0624 278.516 60.9956 280.851 60.37C284.062 59.4937 286.285 57.6864 286.918 55.4081ZM268.852 56.6449C267.468 54.3563 266.006 49.6648 267.069 46.4058C267.528 45.0079 268.4 44.0346 269.675 43.5043C270.001 43.3697 270.33 43.2499 270.683 43.1555C274.016 42.2624 278.379 43.391 281.764 46.0406C284.63 48.2785 286.257 51.1788 286.223 53.9891C286.222 54.3984 286.155 54.7941 286.051 55.1683C285.494 57.143 283.522 58.7101 280.615 59.4891C276.441 60.5917 270.761 59.8318 268.852 56.6449Z" fill="#FFEEA7"/>
<path d="M273.484 79.0918C273.857 79.7371 274.613 80.4763 276.073 80.3219C277.439 80.1787 279.456 79.2007 280.388 78.2322C281.734 76.8382 281.417 74.0528 280.336 72.1813C279.566 70.8475 278.484 70.0666 277.366 70.067C277.149 70.0634 276.922 70.0936 276.698 70.1516C275.519 70.445 274.426 71.6068 273.694 73.32C272.949 75.0842 272.596 77.5537 273.484 79.0918ZM276.88 70.8641C277.044 70.8264 277.204 70.8056 277.36 70.8019C278.212 70.8119 279.051 71.446 279.691 72.5539C280.883 74.619 280.699 76.8336 279.851 77.7247C279.055 78.557 277.178 79.4543 275.99 79.5813C275.138 79.6713 274.514 79.386 274.129 78.7192C273.477 77.5898 273.585 75.4911 274.384 73.5958C275.014 72.1279 275.943 71.104 276.88 70.8641Z" fill="#FFEEA7"/>
<path d="M234.033 63.1539C236.526 63.2147 239.004 62.1659 241.649 59.9617C245.783 56.4959 248.17 51.4492 250.48 46.5849C250.617 46.2808 250.754 45.992 250.906 45.7032C255.953 35.0777 260.726 26.4436 267.627 18.8735C267.931 18.539 268.265 18.159 268.645 17.7486C269.193 17.1406 269.816 16.4413 270.5 15.6965L269.269 15.6965C268.797 16.2133 268.372 16.6997 267.977 17.1406C267.612 17.551 267.262 17.931 266.973 18.2654C259.996 25.9267 255.193 34.6217 250.1 45.3232C249.963 45.612 249.827 45.916 249.675 46.22C247.41 51.0084 245.069 55.9487 241.086 59.2929C238.624 61.345 236.328 62.3331 234.078 62.2723C231.129 62.2115 228.636 61.4362 226.873 60.0377C224.958 58.5176 224 56.3743 224.061 53.6533C224.152 48.8346 226.296 44.4719 228.378 40.246C230.445 36.0354 232.574 31.7031 232.802 26.7932C232.984 22.6433 232.437 18.8127 231.251 15.6965L230.278 15.6965C231.494 18.7367 232.072 22.5673 231.889 26.7476C231.677 31.4599 229.579 35.7162 227.557 39.8356C225.444 44.1375 223.255 48.5914 223.149 53.6229C223.012 59.3385 227.192 63.0019 234.033 63.1539Z" fill="#FFEEA7"/>
</g>
<path fill-rule="evenodd" clip-rule="evenodd" d="M302.369 212.737H313.018V193.602H302.369V212.737Z" fill="#FF5F00"/>
<path fill-rule="evenodd" clip-rule="evenodd" d="M303.043 203.169C303.043 199.287 304.861 195.83 307.692 193.602C305.622 191.972 303.01 191 300.17 191C293.449 191 288 196.449 288 203.169C288 209.89 293.449 215.339 300.17 215.339C303.01 215.339 305.622 214.367 307.692 212.737C304.861 210.509 303.043 207.051 303.043 203.169Z" fill="#EB001B"/>
<path fill-rule="evenodd" clip-rule="evenodd" d="M327.383 203.169C327.383 209.89 321.934 215.339 315.213 215.339C312.374 215.339 309.761 214.367 307.691 212.737C310.522 210.509 312.34 207.051 312.34 203.169C312.34 199.287 310.522 195.83 307.691 193.602C309.761 191.972 312.374 191 315.213 191C321.934 191 327.383 196.449 327.383 203.169Z" fill="#F79E1B"/>
<path d="M58.8191 206.601C60.1696 206.601 61.1318 205.917 61.3428 204.525H60.6592C60.5072 205.504 59.8235 206.002 58.836 206.002C57.5362 206.002 56.7596 205.073 56.7596 203.537V203.469C56.7596 201.95 57.5953 200.979 58.8445 200.979C59.8742 200.979 60.4059 201.452 60.5579 202.372H61.2838C61.1571 201.064 60.0936 200.397 58.836 200.397C57.1986 200.397 56 201.688 56 203.478V203.545C56 205.402 57.0719 206.601 58.8191 206.601Z" fill="white"/>
<path d="M63.5984 206.601C64.2484 206.601 64.6451 206.382 64.9742 205.968V206.525H65.6748V203.613C65.6748 202.38 64.9067 202.034 64.0627 202.034C63.2102 202.034 62.4083 202.406 62.3155 203.41H63.016C63.0836 202.87 63.4212 202.617 64.0289 202.617C64.7041 202.617 64.9742 202.912 64.9742 203.613V203.934H64.3412C63.2102 203.934 62.1298 204.28 62.1298 205.301C62.1298 206.204 62.7797 206.601 63.5984 206.601ZM63.666 206.044C63.0498 206.044 62.8303 205.757 62.8303 205.301C62.8303 204.651 63.4803 204.432 64.3665 204.432H64.9742V204.98C64.9742 205.664 64.4087 206.044 63.666 206.044Z" fill="white"/>
<path d="M67.0509 206.525H67.7515V204.102C67.7515 203.014 68.317 202.735 69.2033 202.693V202.034C68.4099 202.06 68.03 202.406 67.7515 202.904V202.11H67.0509V206.525Z" fill="white"/>
<path d="M71.7635 206.601C72.405 206.601 73.0211 206.196 73.2744 205.765V206.525H73.9749V200H73.2744V202.819C73.0211 202.389 72.5653 202.034 71.831 202.034C70.6156 202.034 69.7715 202.988 69.7715 204.339V204.406C69.7715 205.782 70.6072 206.601 71.7635 206.601ZM71.8395 206.019C71.0967 206.019 70.4974 205.487 70.4974 204.373V204.305C70.4974 203.233 71.0207 202.617 71.8986 202.617C72.7595 202.617 73.2997 203.149 73.2997 204.28V204.347C73.2997 205.478 72.6582 206.019 71.8395 206.019Z" fill="white"/>
<path d="M77.6769 206.525H78.4113V203.841H81.5849V206.525H82.3192V200.49H81.5849V203.225H78.4113V200.49H77.6769V206.525Z" fill="white"/>
<path d="M85.6318 206.019C84.7372 206.019 84.1885 205.36 84.1885 204.356V204.288C84.1885 203.275 84.7456 202.617 85.6318 202.617C86.5097 202.617 87.0752 203.275 87.0752 204.297V204.356C87.0752 205.352 86.5181 206.019 85.6318 206.019ZM85.6234 206.601C86.881 206.601 87.8011 205.681 87.8011 204.347V204.28C87.8011 202.954 86.881 202.034 85.6318 202.034C84.3827 202.034 83.4626 202.963 83.4626 204.288V204.356C83.4626 205.647 84.3658 206.601 85.6234 206.601Z" fill="white"/>
<path d="M88.9027 206.525H89.6117V200H88.9027V206.525Z" fill="white"/>
<path d="M92.7082 206.601C93.3496 206.601 93.9658 206.196 94.219 205.765V206.525H94.9196V200H94.219V202.819C93.9658 202.389 93.51 202.034 92.7757 202.034C91.5602 202.034 90.7162 202.988 90.7162 204.339V204.406C90.7162 205.782 91.5518 206.601 92.7082 206.601ZM92.7841 206.019C92.0414 206.019 91.4421 205.487 91.4421 204.373V204.305C91.4421 203.233 91.9654 202.617 92.8432 202.617C93.7041 202.617 94.2443 203.149 94.2443 204.28V204.347C94.2443 205.478 93.6028 206.019 92.7841 206.019Z" fill="white"/>
<path d="M98.1434 206.601C99.1394 206.601 99.8737 206.137 100.026 205.25H99.3251C99.2323 205.765 98.8356 206.019 98.1519 206.019C97.2488 206.019 96.7676 205.462 96.7339 204.457H100.059V204.229C100.059 202.651 99.0972 202.034 98.0759 202.034C96.8605 202.034 96.008 202.963 96.008 204.297V204.364C96.008 205.723 96.8942 206.601 98.1434 206.601ZM96.7592 203.891C96.8774 203.106 97.3585 202.617 98.0759 202.617C98.8018 202.617 99.2745 202.98 99.342 203.891H96.7592Z" fill="white"/>
<path d="M101.134 206.525H101.835V204.102C101.835 203.014 102.4 202.735 103.287 202.693V202.034C102.493 202.06 102.114 202.406 101.835 202.904V202.11H101.134V206.525Z" fill="white"/>
<path d="M106.592 206.525H107.293V201.351L110.34 206.525H111.184V200.49H110.483V205.478L107.546 200.49H106.592V206.525Z" fill="white"/>
<path d="M113.755 206.601C114.405 206.601 114.802 206.382 115.131 205.968V206.525H115.832V203.613C115.832 202.38 115.063 202.034 114.219 202.034C113.367 202.034 112.565 202.406 112.472 203.41H113.173C113.24 202.87 113.578 202.617 114.186 202.617C114.861 202.617 115.131 202.912 115.131 203.613V203.934H114.498C113.367 203.934 112.286 204.28 112.286 205.301C112.286 206.204 112.936 206.601 113.755 206.601ZM113.823 206.044C113.207 206.044 112.987 205.757 112.987 205.301C112.987 204.651 113.637 204.432 114.523 204.432H115.131V204.98C115.131 205.664 114.565 206.044 113.823 206.044Z" fill="white"/>
<path d="M117.208 206.525H117.908V203.824C117.908 203.03 118.499 202.642 119.073 202.642C119.681 202.642 120.01 202.963 120.01 203.739V206.525H120.71V203.824C120.71 203.03 121.301 202.642 121.875 202.642C122.483 202.642 122.812 202.963 122.812 203.739V206.525H123.513V203.79C123.513 202.507 122.821 202.034 122.027 202.034C121.479 202.034 120.82 202.288 120.516 202.862C120.288 202.271 119.79 202.034 119.225 202.034C118.592 202.034 118.111 202.372 117.908 202.786V202.11H117.208V206.525Z" fill="white"/>
<path d="M126.696 206.601C127.692 206.601 128.426 206.137 128.578 205.25H127.878C127.785 205.765 127.388 206.019 126.705 206.019C125.801 206.019 125.32 205.462 125.287 204.457H128.612V204.229C128.612 202.651 127.65 202.034 126.629 202.034C125.413 202.034 124.561 202.963 124.561 204.297V204.364C124.561 205.723 125.447 206.601 126.696 206.601ZM125.312 203.891C125.43 203.106 125.911 202.617 126.629 202.617C127.354 202.617 127.827 202.98 127.895 203.891H125.312Z" fill="white"/>
<path d="M292.352 139.001H293.74L297.92 127.201V127H290.574V128.175H296.235L292.352 139.001Z" fill="white"/>
<path d="M303.899 139.152C306.02 139.152 307.72 137.608 307.72 135.073C307.72 132.623 306.254 131.095 304.258 131.095C303.197 131.095 302.433 131.465 301.981 131.918V128.259H307.127V127H300.858V133.428H301.357C301.95 132.707 302.698 132.27 303.993 132.27C305.412 132.27 306.332 133.378 306.332 135.073C306.332 136.886 305.396 137.977 303.883 137.977C302.184 137.977 301.7 137.071 301.482 135.761H300.187C300.343 137.725 301.497 139.152 303.899 139.152Z" fill="white"/>
<path d="M315.881 139.001H317.206V136.483H318.75V135.291H317.206V127H315.397L310.297 136.013V136.483H315.881V139.001ZM312.013 135.291L315.881 128.108V135.291H312.013Z" fill="white"/>
<path d="M324.945 139.152C327.066 139.152 328.766 137.608 328.766 135.073C328.766 132.623 327.3 131.095 325.304 131.095C324.243 131.095 323.479 131.465 323.027 131.918V128.259H328.173V127H321.904V133.428H322.403C322.995 132.707 323.744 132.27 325.038 132.27C326.458 132.27 327.378 133.378 327.378 135.073C327.378 136.886 326.442 137.977 324.929 137.977C323.229 137.977 322.746 137.071 322.527 135.761H321.233C321.389 137.725 322.543 139.152 324.945 139.152Z" fill="white"/>
<path d="M214.161 139.001H215.549L219.728 127.201V127H212.383V128.175H218.044L214.161 139.001Z" fill="white"/>
<path d="M225.708 139.152C227.829 139.152 229.529 137.608 229.529 135.073C229.529 132.623 228.063 131.095 226.066 131.095C225.006 131.095 224.242 131.465 223.789 131.918V128.259H228.936V127H222.666V133.428H223.166C223.758 132.707 224.507 132.27 225.801 132.27C227.22 132.27 228.141 133.378 228.141 135.073C228.141 136.886 227.205 137.977 225.692 137.977C223.992 137.977 223.509 137.071 223.29 135.761H221.996C222.152 137.725 223.306 139.152 225.708 139.152Z" fill="white"/>
<path d="M237.689 139.001H239.015V136.483H240.559V135.291H239.015V127H237.206L232.106 136.013V136.483H237.689V139.001ZM233.822 135.291L237.689 128.108V135.291H233.822Z" fill="white"/>
<path d="M246.753 139.152C248.874 139.152 250.574 137.608 250.574 135.073C250.574 132.623 249.108 131.095 247.112 131.095C246.052 131.095 245.287 131.465 244.835 131.918V128.259H249.982V127H243.712V133.428H244.211C244.804 132.707 245.553 132.27 246.847 132.27C248.266 132.27 249.186 133.378 249.186 135.073C249.186 136.886 248.251 137.977 246.738 137.977C245.038 137.977 244.554 137.071 244.336 135.761H243.042C243.198 137.725 244.352 139.152 246.753 139.152Z" fill="white"/>
<path d="M135.969 139.001H137.357L141.537 127.201V127H134.191V128.175H139.853L135.969 139.001Z" fill="white"/>
<path d="M147.516 139.152C149.637 139.152 151.337 137.608 151.337 135.073C151.337 132.623 149.871 131.095 147.875 131.095C146.814 131.095 146.05 131.465 145.598 131.918V128.259H150.745V127H144.475V133.428H144.974C145.567 132.707 146.315 132.27 147.61 132.27C149.029 132.27 149.949 133.378 149.949 135.073C149.949 136.886 149.013 137.977 147.501 137.977C145.801 137.977 145.317 137.071 145.099 135.761H143.804C143.96 137.725 145.115 139.152 147.516 139.152Z" fill="white"/>
<path d="M159.498 139.001H160.824V136.483H162.368V135.291H160.824V127H159.014L153.915 136.013V136.483H159.498V139.001ZM155.63 135.291L159.498 128.108V135.291H155.63Z" fill="white"/>
<path d="M168.562 139.152C170.683 139.152 172.383 137.608 172.383 135.073C172.383 132.623 170.917 131.095 168.921 131.095C167.86 131.095 167.096 131.465 166.644 131.918V128.259H171.79V127H165.521V133.428H166.02C166.613 132.707 167.361 132.27 168.656 132.27C170.075 132.27 170.995 133.378 170.995 135.073C170.995 136.886 170.059 137.977 168.546 137.977C166.846 137.977 166.363 137.071 166.145 135.761H164.85C165.006 137.725 166.16 139.152 168.562 139.152Z" fill="white"/>
<path d="M57.7779 139.001H59.1659L63.3456 127.201V127H56V128.175H61.6613L57.7779 139.001Z" fill="white"/>
<path d="M69.3249 139.152C71.4459 139.152 73.1458 137.608 73.1458 135.073C73.1458 132.623 71.6798 131.095 69.6836 131.095C68.623 131.095 67.8589 131.465 67.4066 131.918V128.259H72.5532V127H66.2837V133.428H66.7828C67.3754 132.707 68.124 132.27 69.4184 132.27C70.8376 132.27 71.7578 133.378 71.7578 135.073C71.7578 136.886 70.822 137.977 69.3093 137.977C67.6093 137.977 67.1259 137.071 66.9075 135.761H65.6131C65.769 137.725 66.9231 139.152 69.3249 139.152Z" fill="white"/>
<path d="M81.3065 139.001H82.6322V136.483H84.1761V135.291H82.6322V127H80.8231L75.7233 136.013V136.483H81.3065V139.001ZM77.4388 135.291L81.3065 128.108V135.291H77.4388Z" fill="white"/>
<path d="M90.3706 139.152C92.4916 139.152 94.1915 137.608 94.1915 135.073C94.1915 132.623 92.7255 131.095 90.7293 131.095C89.6688 131.095 88.9046 131.465 88.4523 131.918V128.259H93.5989V127H87.3294V133.428H87.8285C88.4211 132.707 89.1697 132.27 90.4642 132.27C91.8834 132.27 92.8035 133.378 92.8035 135.073C92.8035 136.886 91.8678 137.977 90.355 137.977C88.6551 137.977 88.1716 137.071 87.9532 135.761H86.6588C86.8148 137.725 87.9688 139.152 90.3706 139.152Z" fill="white"/>
<path d="M173.61 204.607H174.351V198.519H173.661L172.248 199.541V200.231L173.61 199.252V204.607Z" fill="white"/>
<path d="M178.296 204.07C177.283 204.07 176.636 203.27 176.636 201.729V201.388C176.636 199.89 177.249 199.039 178.279 199.039C179.309 199.039 179.905 199.958 179.905 201.371V201.712C179.905 203.253 179.36 204.07 178.296 204.07ZM178.296 204.683C179.795 204.683 180.655 203.491 180.655 201.72V201.38C180.655 199.643 179.778 198.443 178.279 198.443C176.789 198.443 175.878 199.601 175.878 201.397V201.737C175.878 203.508 176.84 204.683 178.296 204.683Z" fill="white"/>
<path d="M180.873 205.867H181.52L183.997 198H183.35L180.873 205.867Z" fill="white"/>
<path d="M185.815 204.607H186.556V198.519H185.866L184.453 199.541V200.231L185.815 199.252V204.607Z" fill="white"/>
<path d="M187.734 204.607H191.812V204.002H188.875L190.552 202.367C191.302 201.635 191.778 200.903 191.778 200.154C191.778 199.107 191.063 198.443 189.939 198.443C188.782 198.443 188.058 199.2 187.964 200.392H188.654C188.773 199.439 189.233 199.039 189.939 199.039C190.629 199.039 191.029 199.447 191.029 200.128C191.029 200.75 190.706 201.303 190.152 201.891L187.734 204.436V204.607Z" fill="white"/>
<path d="M154.825 201.647H155.342L156.568 198.096H156.161L155.103 201.23L154.045 198.096H153.618L154.825 201.647Z" fill="white"/>
<path d="M156.573 201.647H156.98L157.322 200.624H158.787L159.135 201.647H159.562L158.36 198.096H157.794L156.573 201.647ZM158.057 198.454L158.673 200.281H157.442L158.057 198.454Z" fill="white"/>
<path d="M160.187 201.647H162.243V201.294H160.619V198.096H160.187V201.647Z" fill="white"/>
<path d="M162.87 201.647H163.302V198.096H162.87V201.647Z" fill="white"/>
<path d="M164.654 201.294V198.444H165.136C166.114 198.444 166.512 199.02 166.512 199.839V199.879C166.512 200.748 166.055 201.294 165.141 201.294H164.654ZM164.222 201.647H165.151C166.392 201.647 166.959 200.867 166.959 199.884V199.839C166.959 198.851 166.383 198.096 165.161 198.096H164.222V201.647Z" fill="white"/>
<path d="M154.646 207.323H155.078V204.125H156.111V203.772H153.613V204.125H154.646V207.323Z" fill="white"/>
<path d="M156.7 207.323H157.132V205.744H158.999V207.323H159.432V203.772H158.999V205.381H157.132V203.772H156.7V207.323Z" fill="white"/>
<path d="M160.328 207.323H160.76V205.778H161.306L162.364 207.323H162.846L161.758 205.749C162.245 205.654 162.637 205.366 162.637 204.78V204.76C162.637 204.05 162.076 203.772 161.396 203.772H160.328V207.323ZM160.76 205.436V204.12H161.425C161.907 204.12 162.205 204.278 162.205 204.76V204.78C162.205 205.217 161.932 205.436 161.425 205.436H160.76Z" fill="white"/>
<path d="M164.669 207.368C165.582 207.368 166.014 206.836 166.014 205.972V203.772H165.582V205.912C165.582 206.782 165.245 207.01 164.678 207.01C164.087 207.01 163.824 206.722 163.824 205.977V203.772H163.392V206.027C163.392 206.891 163.854 207.368 164.669 207.368Z" fill="white"/>
<path d="M236.797 204.489C237.558 204.489 238.114 203.898 238.114 203.172C238.114 202.445 237.558 201.855 236.797 201.855C236.048 201.855 235.48 202.445 235.48 203.172C235.48 203.898 236.048 204.489 236.797 204.489Z" fill="white"/>
<path d="M241.247 204.489C242.008 204.489 242.564 203.898 242.564 203.172C242.564 202.445 242.008 201.855 241.247 201.855C240.498 201.855 239.931 202.445 239.931 203.172C239.931 203.898 240.498 204.489 241.247 204.489Z" fill="white"/>
<path d="M245.698 204.489C246.458 204.489 247.014 203.898 247.014 203.172C247.014 202.445 246.458 201.855 245.698 201.855C244.948 201.855 244.381 202.445 244.381 203.172C244.381 203.898 244.948 204.489 245.698 204.489Z" fill="white"/>
<path d="M221.471 205.209C222.266 205.209 222.832 204.806 222.956 203.987H222.554C222.464 204.563 222.062 204.856 221.481 204.856C220.716 204.856 220.259 204.31 220.259 203.406V203.366C220.259 202.472 220.751 201.901 221.486 201.901C222.092 201.901 222.405 202.179 222.494 202.721H222.921C222.847 201.951 222.221 201.558 221.481 201.558C220.518 201.558 219.812 202.318 219.812 203.371V203.411C219.812 204.503 220.443 205.209 221.471 205.209Z" fill="white"/>
<path d="M224.474 205.164H224.991L226.218 201.613H225.81L224.752 204.747L223.695 201.613H223.268L224.474 205.164Z" fill="white"/>
<path d="M227.724 205.164H228.24L229.467 201.613H229.06L228.002 204.747L226.944 201.613H226.517L227.724 205.164Z" fill="white"/>
<path d="M95.1385 175H95.8178V173.538C97.3147 173.446 98.3856 172.432 98.3856 171.12C98.3856 169.634 97.5105 169.093 95.8178 168.794V165.915C96.6699 166.03 97.142 166.491 97.3147 167.377H98.2129C98.0632 166.042 97.1996 165.259 95.8178 165.132V164.084H95.1385V165.121C93.6992 165.213 92.7089 166.145 92.7089 167.343C92.7089 168.725 93.6186 169.266 95.1385 169.554V172.755C93.7337 172.628 93.4574 171.834 93.3422 170.935H92.375C92.5132 172.26 93.1695 173.399 95.1385 173.538V175ZM97.4299 171.189C97.4299 172.041 96.739 172.663 95.8178 172.755V169.669C97.0729 169.934 97.4299 170.337 97.4299 171.189ZM93.6186 167.251C93.6186 166.537 94.1713 165.984 95.1385 165.904V168.679C93.8604 168.414 93.6186 167.976 93.6186 167.251Z" fill="white"/>
<path d="M99.2947 173.446H104.81V172.628H100.838L103.106 170.417C104.119 169.427 104.764 168.437 104.764 167.423C104.764 166.007 103.797 165.109 102.277 165.109C100.711 165.109 99.7322 166.134 99.6056 167.746H100.538C100.699 166.456 101.321 165.915 102.277 165.915C103.21 165.915 103.751 166.468 103.751 167.389C103.751 168.229 103.313 168.978 102.565 169.772L99.2947 173.215V173.446Z" fill="white"/>
<path d="M109.356 172.72C107.986 172.72 107.111 171.638 107.111 169.554V169.093C107.111 167.066 107.94 165.915 109.333 165.915C110.727 165.915 111.533 167.159 111.533 169.07V169.531C111.533 171.615 110.796 172.72 109.356 172.72ZM109.356 173.549C111.383 173.549 112.546 171.937 112.546 169.542V169.082C112.546 166.733 111.36 165.109 109.333 165.109C107.318 165.109 106.086 166.675 106.086 169.105V169.565C106.086 171.96 107.387 173.549 109.356 173.549Z" fill="white"/>
<path d="M117.194 172.72C115.824 172.72 114.949 171.638 114.949 169.554V169.093C114.949 167.066 115.778 165.915 117.171 165.915C118.564 165.915 119.37 167.159 119.37 169.07V169.531C119.37 171.615 118.633 172.72 117.194 172.72ZM117.194 173.549C119.22 173.549 120.383 171.937 120.383 169.542V169.082C120.383 166.733 119.197 165.109 117.171 165.109C115.156 165.109 113.924 166.675 113.924 169.105V169.565C113.924 171.96 115.225 173.549 117.194 173.549Z" fill="white"/>
<path d="M121.533 174.862L122.95 172.455L122.017 172.018L120.911 174.539L121.533 174.862Z" fill="white"/>
<path d="M127.134 172.72C125.764 172.72 124.889 171.638 124.889 169.554V169.093C124.889 167.066 125.718 165.915 127.111 165.915C128.504 165.915 129.31 167.159 129.31 169.07V169.531C129.31 171.615 128.574 172.72 127.134 172.72ZM127.134 173.549C129.161 173.549 130.324 171.937 130.324 169.542V169.082C130.324 166.733 129.138 165.109 127.111 165.109C125.096 165.109 123.864 166.675 123.864 169.105V169.565C123.864 171.96 125.165 173.549 127.134 173.549Z" fill="white"/>
<path d="M134.972 172.72C133.601 172.72 132.726 171.638 132.726 169.554V169.093C132.726 167.066 133.555 165.915 134.949 165.915C136.342 165.915 137.148 167.159 137.148 169.07V169.531C137.148 171.615 136.411 172.72 134.972 172.72ZM134.972 173.549C136.998 173.549 138.161 171.937 138.161 169.542V169.082C138.161 166.733 136.975 165.109 134.949 165.109C132.934 165.109 131.702 166.675 131.702 169.105V169.565C131.702 171.96 133.003 173.549 134.972 173.549Z" fill="white"/>
<path d="M142.809 172.72C141.439 172.72 140.564 171.638 140.564 169.554V169.093C140.564 167.066 141.393 165.915 142.786 165.915C144.179 165.915 144.985 167.159 144.985 169.07V169.531C144.985 171.615 144.249 172.72 142.809 172.72ZM142.809 173.549C144.836 173.549 145.999 171.937 145.999 169.542V169.082C145.999 166.733 144.813 165.109 142.786 165.109C140.771 165.109 139.539 166.675 139.539 169.105V169.565C139.539 171.96 140.84 173.549 142.809 173.549Z" fill="white"/>
<path d="M56 172.169H57.6456C58.6061 172.169 59.2241 171.732 59.2241 170.826V170.799C59.2241 170.174 58.9621 169.818 58.2636 169.65C58.8143 169.462 58.989 169.073 58.989 168.636V168.609C58.989 167.662 58.3374 167.366 57.4441 167.366H56V172.169ZM56.5709 171.712V169.919H57.5516C58.324 169.919 58.6531 170.201 58.6531 170.792V170.819C58.6531 171.403 58.3307 171.712 57.6322 171.712H56.5709ZM56.5709 169.462V167.823H57.4307C58.1024 167.823 58.4181 168.045 58.4181 168.589V168.616C58.4181 169.207 58.1494 169.462 57.4441 169.462H56.5709Z" fill="white"/>
<path d="M59.75 172.169H60.3008L60.7643 170.785H62.7457L63.2159 172.169H63.7935L62.1681 167.366H61.4024L59.75 172.169ZM61.7583 167.85L62.5912 170.322H60.9255L61.7583 167.85Z" fill="white"/>
<path d="M64.6387 172.169H67.4195V171.692H65.2231V167.366H64.6387V172.169Z" fill="white"/>
<path d="M67.8705 172.169H68.4213L68.8848 170.785H70.8662L71.3364 172.169H71.9141L70.2886 167.366H69.5229L67.8705 172.169ZM69.8789 167.85L70.7117 170.322H69.046L69.8789 167.85Z" fill="white"/>
<path d="M72.7592 172.169H73.3167V168.052L75.7415 172.169H76.4132V167.366H75.8557V171.336L73.5182 167.366H72.7592V172.169Z" fill="white"/>
<path d="M79.628 172.229C80.7027 172.229 81.4685 171.685 81.6364 170.577H81.0923C80.9714 171.356 80.4273 171.753 79.6415 171.753C78.6071 171.753 77.9891 171.014 77.9891 169.791V169.738C77.9891 168.528 78.6541 167.756 79.6482 167.756C80.4676 167.756 80.8908 168.132 81.0117 168.864H81.5894C81.4886 167.823 80.6423 167.293 79.6415 167.293C78.3384 167.293 77.3846 168.32 77.3846 169.744V169.798C77.3846 171.276 78.2377 172.229 79.628 172.229Z" fill="white"/>
<path d="M82.5261 172.169H85.448V171.692H83.1105V169.952H84.8972V169.476H83.1105V167.843H85.327V167.366H82.5261V172.169Z" fill="white"/>
<path d="M80.9511 65.3046C80.6235 64.6224 80.2904 63.9419 79.9574 63.2615C79.8548 63.0509 79.718 62.8637 79.547 62.7035C79.3328 62.5055 79.349 62.3273 79.6028 62.1743C80.0456 61.9079 80.3588 61.5299 80.5478 61.0529C80.8413 60.3167 80.8467 59.5625 80.6307 58.8101C80.3966 57.9947 79.844 57.5015 79.0286 57.2891C78.71 57.2063 78.386 57.1739 78.0602 57.1703C76.9928 57.1613 75.9254 57.1649 74.858 57.1685C74.5556 57.1685 74.4512 57.2801 74.4512 57.5807C74.4512 58.8911 74.4512 60.2015 74.4512 61.5119C74.4512 62.8223 74.4512 64.1327 74.4512 65.4432C74.4512 65.751 74.5556 65.859 74.8688 65.8644C75.1946 65.868 75.5204 65.8626 75.848 65.8662C76.235 65.8716 76.4168 65.8266 76.4042 65.3244C76.3862 64.545 76.3988 63.7655 76.4006 62.9861C76.4006 62.7791 76.4744 62.6693 76.631 62.6315C77.1278 62.5091 77.5598 62.7251 77.7758 63.1895C78.1448 63.9869 78.5246 64.779 78.8918 65.5782C78.9854 65.7816 79.124 65.8698 79.3436 65.868C79.7576 65.8626 80.1734 65.868 80.5875 65.8662C80.9727 65.8626 81.1149 65.6484 80.9511 65.3046ZM78.8864 60.1133C78.8324 60.6047 78.5462 60.8459 78.0008 60.8711C77.5544 60.8927 77.1062 60.8801 76.6598 60.8765C76.4906 60.8747 76.3988 60.7793 76.3934 60.6029C76.3862 60.3707 76.3916 60.1385 76.3916 59.9063C76.3916 59.6741 76.3898 59.4419 76.3916 59.2097C76.3934 59.0585 76.4672 58.9415 76.622 58.9361C77.1134 58.9217 77.6066 58.8911 78.0944 58.9505C78.7442 59.0315 78.962 59.4347 78.8864 60.1133Z" fill="white"/>
<path d="M71.4479 62.4345C71.4479 63.4246 71.4479 64.4146 71.4479 65.4046C71.4479 65.7466 71.3327 65.8618 70.9907 65.8636C70.6306 65.8654 70.2724 65.8654 69.9124 65.8636C69.529 65.8618 69.4174 65.752 69.4174 65.3686C69.4156 63.4282 69.4174 61.4859 69.4174 59.5455C69.4174 59.4897 69.4174 59.4357 69.4174 59.3799C69.4138 59.1387 69.3184 59.0397 69.0736 59.0379C68.5822 59.0343 68.089 59.0379 67.5976 59.0361C67.306 59.0361 67.1926 58.9263 67.1908 58.6401C67.189 58.2855 67.189 57.9327 67.1908 57.5781C67.1926 57.2991 67.315 57.1677 67.5958 57.1677C69.4876 57.1659 71.3777 57.1659 73.2695 57.1677C73.5683 57.1677 73.6799 57.2865 73.6799 57.5817C73.6817 57.9363 73.6817 58.2891 73.6799 58.6437C73.6781 58.9317 73.5755 59.0361 73.2929 59.0361C72.8069 59.0379 72.3191 59.0361 71.8331 59.0361C71.5523 59.0361 71.4533 59.1351 71.4533 59.4141C71.4479 60.4203 71.4479 61.4283 71.4479 62.4345Z" fill="white"/>
<path d="M67.7498 65.7956C67.5608 65.7956 67.3736 65.7956 67.1864 65.7956C66.9866 65.7956 66.8552 65.7074 66.785 65.5148C66.6338 65.0936 66.4682 64.6778 66.317 64.2548C66.254 64.0784 66.1442 64.0064 65.957 64.0064C65.0444 64.0118 64.1318 64.0082 63.2192 64.0082C62.9924 64.0082 62.9276 64.055 62.8484 64.2638C62.6954 64.6724 62.5441 65.0828 62.3911 65.4914C62.3047 65.7218 62.2129 65.792 61.9735 65.7938C61.5919 65.7974 61.2103 65.7992 60.8287 65.7938C60.4867 65.7902 60.3535 65.5814 60.4813 65.2628C60.6289 64.8938 60.7819 64.5266 60.9259 64.154C60.9709 64.0406 61.0339 63.9956 61.1581 63.992C62.3191 63.9488 63.2534 63.4538 63.9536 62.534C64.1048 62.3342 64.2632 62.2406 64.5098 62.2622C64.697 62.2784 64.886 62.2658 65.0732 62.2658C65.4062 62.264 65.5196 62.1092 65.4062 61.8014C65.1866 61.2038 64.9652 60.6098 64.742 60.0139C64.679 59.8429 64.6232 59.6701 64.58 59.4919C64.436 58.9015 64.166 58.3723 63.7466 57.9295C63.5792 57.7513 63.5738 57.5803 63.662 57.3715C63.7484 57.1663 63.8978 57.0943 64.1066 57.0979C64.4 57.1015 64.6934 57.0979 64.985 57.0997C65.291 57.1015 65.3684 57.1519 65.4836 57.4363C66.1442 59.0653 66.803 60.6944 67.4618 62.3234C67.856 63.2972 68.2502 64.271 68.6462 65.243C68.7866 65.5886 68.6534 65.792 68.2772 65.7956C68.1026 65.7974 67.9262 65.7956 67.7498 65.7956Z" fill="white"/>
<path d="M83.9247 61.5197C83.9247 62.8139 83.9247 64.1081 83.9247 65.4023C83.9247 65.7479 83.8149 65.8613 83.4693 65.8631C83.0985 65.8649 82.7277 65.8649 82.3587 65.8631C82.0473 65.8613 81.9213 65.7371 81.9213 65.4311C81.9195 62.8157 81.9195 60.2003 81.9213 57.5848C81.9213 57.2986 82.0491 57.1708 82.3389 57.169C82.7205 57.1654 83.1021 57.1654 83.4837 57.169C83.8095 57.1708 83.9247 57.286 83.9247 57.6082C83.9247 58.9096 83.9247 60.2147 83.9247 61.5197Z" fill="white"/>
<path d="M88.6658 65.9947C88.1906 65.9173 87.7208 65.8147 87.287 65.5969C85.8524 64.8769 85.0082 63.714 84.7742 62.1336C84.4448 59.898 85.9208 57.5742 88.4768 57.1764C90.1526 56.9154 91.571 57.4698 92.6493 58.8108C92.6835 58.854 92.7141 58.9008 92.7447 58.9458C92.8077 59.0376 92.7789 59.106 92.6961 59.1708C92.6169 59.232 92.5557 59.286 92.4531 59.1996C92.3073 59.0772 92.1849 58.9368 92.0589 58.7964C91.3028 57.9612 90.3344 57.5274 89.2364 57.5256C87.7316 57.522 86.522 58.1592 85.7264 59.475C85.3394 60.114 85.091 60.807 85.1252 61.5648C85.2296 63.8382 86.6876 65.2207 88.52 65.5303C90.0338 65.7859 91.3208 65.2819 92.3001 64.0687C92.3271 64.0345 92.3559 64.0003 92.3865 63.9697C92.4819 63.876 92.5917 63.8562 92.6979 63.9427C92.8077 64.0327 92.7771 64.1353 92.7051 64.2361C92.3595 64.7149 91.9184 65.0857 91.4144 65.3863C90.9014 65.6923 90.347 65.8903 89.7602 65.9929C89.3966 65.9947 89.0312 65.9947 88.6658 65.9947Z" fill="white"/>
<path d="M85.8444 61.2525C85.8516 63.0112 86.7624 64.309 88.1646 64.7266C89.3472 65.0776 90.7638 64.8598 91.6548 63.7456C91.6998 63.6898 91.7448 63.634 91.7952 63.5818C91.9266 63.4414 91.9896 63.445 92.1246 63.5746C92.211 63.6592 92.2002 63.7258 92.1318 63.8158C91.527 64.6168 90.7314 65.1154 89.7396 65.263C88.683 65.4196 87.7146 65.1676 86.8668 64.516C86.0334 63.877 85.5762 63.0202 85.4664 61.9761C85.3692 61.0563 85.5528 60.2013 86.073 59.4345C86.7174 58.4823 87.6408 57.9801 88.7712 57.8505C89.9646 57.7137 90.9834 58.0863 91.824 58.9431C91.9518 59.0727 92.0562 59.2239 92.1732 59.3643C92.2416 59.4453 92.2092 59.5047 92.139 59.5605C92.0706 59.6163 92.0166 59.7171 91.9032 59.6271C91.8186 59.5605 91.7556 59.4795 91.6854 59.4003C91.1958 58.8567 90.6126 58.4715 89.8854 58.3185C88.746 58.0791 87.738 58.3545 86.8974 59.1375C86.2206 59.7675 85.8732 60.5775 85.8444 61.2525Z" fill="white"/>
<path d="M89.0546 64.6089C87.6164 64.6089 86.2988 63.3669 86.162 61.8081C86.0288 60.2925 87.0602 58.928 88.475 58.6004C89.636 58.3304 90.8348 58.7498 91.499 59.6697C91.5152 59.6931 91.535 59.7129 91.5458 59.7381C91.5728 59.8047 91.6844 59.8803 91.5602 59.9433C91.4612 59.9937 91.355 60.1143 91.2308 59.9541C90.8168 59.4177 90.2624 59.1224 89.6018 58.9874C88.1024 58.6832 86.7794 59.8623 86.5886 61.1277C86.369 62.5911 87.314 63.9195 88.772 64.1463C89.7242 64.2939 90.5234 63.9699 91.1534 63.2409C91.3172 63.0519 91.3964 63.0303 91.5314 63.1491C91.625 63.2319 91.6034 63.3057 91.5458 63.3939C91.2632 63.8241 90.8708 64.1211 90.41 64.3299C90.0122 64.5099 89.5964 64.6143 89.0546 64.6089Z" fill="white"/>
<path d="M89.1296 59.2404C89.8856 59.2404 90.4652 59.5284 90.926 60.0666C90.9962 60.1494 91.0862 60.2394 90.9512 60.3456C90.8414 60.4338 90.755 60.4698 90.6362 60.3294C89.9432 59.5086 88.7696 59.5266 88.136 59.9514C87.4574 60.4068 87.146 61.1736 87.3188 62.007C87.47 62.7306 88.0964 63.3354 88.8542 63.4524C89.558 63.5604 90.1484 63.312 90.629 62.8008C90.7244 62.7 90.7964 62.6316 90.9242 62.7558C91.0412 62.871 91.052 62.934 90.9206 63.078C90.2654 63.7998 89.4572 64.0644 88.523 63.7836C87.5798 63.4992 87.011 62.8386 86.876 61.8594C86.7014 60.5958 87.5636 59.4708 88.8254 59.2638C88.9406 59.244 89.0576 59.244 89.1296 59.2404Z" fill="white"/>
<path d="M93.3134 65.9942C93.3098 65.9456 93.3044 65.8952 93.3044 65.8448C93.3044 62.9755 93.3044 60.1045 93.3008 57.2334C93.3008 57.075 93.3476 57.0192 93.5078 57.021C93.668 57.0228 93.6842 57.1074 93.6878 57.2316C93.7544 59.9245 93.7184 62.6173 93.7112 65.3101C93.7112 65.4757 93.6896 65.6413 93.6896 65.8069C93.6896 65.9132 93.6482 65.9726 93.5456 65.9924C93.4664 65.9942 93.3908 65.9942 93.3134 65.9942Z" fill="white"/>
<path d="M94.8048 61.5134C94.8048 60.0932 94.8048 58.6712 94.8048 57.251C94.8048 57.035 94.848 57.0026 95.0622 57.0278C95.1432 57.0368 95.1738 57.0746 95.1846 57.1538C95.2116 57.3518 95.2098 57.5516 95.2134 57.7496C95.262 60.0932 95.2512 62.4369 95.235 64.7805C95.2332 65.1009 95.2206 65.4213 95.2116 65.7417C95.2062 65.9613 95.19 65.9631 94.9884 65.9757C94.7958 65.9883 94.8048 65.8713 94.8048 65.7435C94.8066 64.3323 94.8048 62.9229 94.8048 61.5134Z" fill="white"/>
<path d="M95.5352 61.4865C95.5352 60.1887 95.5352 58.889 95.537 57.5894C95.537 57.4634 95.5514 57.3356 95.564 57.2096C95.5748 57.0908 95.6432 57.0332 95.7638 57.035C95.888 57.0368 95.9096 57.1106 95.9168 57.2204C95.9618 57.8162 95.9402 58.4138 95.9456 59.0096C95.9564 60.2967 95.9816 61.5837 95.9636 62.8707C95.951 63.7995 95.9618 64.7265 95.9366 65.6553C95.9348 65.7111 95.9276 65.7651 95.924 65.8209C95.9168 65.9127 95.8934 65.9793 95.7764 65.9721C95.6648 65.9649 95.5784 65.9361 95.564 65.8119C95.5496 65.6805 95.537 65.5473 95.537 65.4159C95.5352 64.1055 95.5352 62.7969 95.5352 61.4865Z" fill="white"/>
<path d="M94.4418 61.5066C94.4418 62.916 94.4418 64.3254 94.4418 65.7348C94.4418 65.94 94.4094 65.9724 94.2366 65.9724C94.1286 65.9724 94.0692 65.9238 94.053 65.8212C94.0422 65.7456 94.035 65.6682 94.035 65.5908C94.0332 62.8656 94.0332 60.1421 94.0332 57.4169C94.0332 57.3503 94.0368 57.2837 94.044 57.2189C94.062 57.0857 94.1448 57.0317 94.2744 57.0371C94.4166 57.0407 94.44 57.1253 94.44 57.2477C94.4418 58.6661 94.4418 60.0863 94.4418 61.5066Z" fill="white"/>
<path d="M103.719 65.9749C103.444 65.9785 103.446 65.9785 103.336 65.7013C102.328 63.1291 101.32 60.5551 100.31 57.9828C100.279 57.9072 100.281 57.7722 100.184 57.7776C100.094 57.783 100.06 57.9072 100.026 57.9936C99.6404 58.971 99.2534 59.9467 98.8717 60.9241C98.6539 61.4839 98.4739 61.8259 98.2597 62.3857C98.2399 62.4379 98.1913 62.4703 98.1355 62.4703H97.9303C97.8367 62.4703 97.7719 62.3767 97.8061 62.2885C98.4829 60.5605 99.1238 59.0502 99.7988 57.3204C99.8546 57.1782 99.914 57.0432 100.08 57H100.213C100.386 56.9982 100.447 57.1098 100.504 57.2556C101.615 60.0961 102.731 62.9365 103.845 65.7751C103.921 65.9659 103.915 65.9713 103.719 65.9749Z" fill="white"/>
<path d="M102.738 57.0011C102.925 57.0479 102.987 57.2027 103.048 57.3593C103.586 58.7363 104.133 60.1115 104.664 61.4922C105.177 62.826 105.707 64.1544 106.234 65.4828C106.283 65.6052 106.315 65.7348 106.355 65.8608C106.38 65.9742 106.337 66.0138 106.221 65.9958C106.157 65.985 106.088 65.994 106.023 65.994C105.921 65.9328 105.887 65.8266 105.843 65.724C105.062 63.8286 104.356 61.9044 103.595 60.0017C103.224 59.0729 102.868 58.1387 102.501 57.2099C102.427 57.0209 102.596 57.0551 102.67 57.0011C102.693 57.0011 102.715 57.0011 102.738 57.0011Z" fill="white"/>
<path d="M102.472 63.9781C102.465 64.0789 102.425 64.1365 102.314 64.1491C101.988 64.1887 101.662 64.1635 101.338 64.1689C101.253 64.1707 100.739 64.1707 100.091 64.1689C99.9394 64.1689 99.781 64.1689 99.619 64.1689C99.5056 64.1689 99.3904 64.1689 99.2752 64.1689C99.1132 64.1689 98.9512 64.1689 98.791 64.1671C98.7658 64.1671 98.7172 64.1671 98.6614 64.1671C98.5264 64.1671 98.4058 64.2481 98.3536 64.3723C98.3356 64.4155 98.3212 64.4497 98.3176 64.4623C98.2636 64.6009 98.2096 64.7377 98.1574 64.8763C98.0512 65.1517 97.9468 65.4289 97.8424 65.7061C97.801 65.8177 97.747 65.9167 97.657 65.996H97.4914C97.27 65.9203 97.27 65.9203 97.3564 65.7025C97.4644 65.4271 97.5724 65.1517 97.6786 64.8781C97.7326 64.7395 97.7866 64.6027 97.8406 64.4641C97.8802 64.3651 97.918 64.2661 97.9558 64.1671C97.9936 64.0699 98.0116 64.0303 98.0476 63.9331C98.1142 63.7531 98.2852 63.7279 98.4436 63.7279H99.4444C99.5614 63.7279 99.6766 63.7279 99.7882 63.7279H100.26C100.865 63.7279 101.336 63.7279 101.424 63.7279C101.694 63.7279 101.966 63.7243 102.236 63.7297C102.414 63.7333 102.485 63.8161 102.472 63.9781Z" fill="white"/>
<path d="M100.379 59.2229C99.9364 60.3497 99.5278 61.2587 99.085 62.3856C99.0652 62.436 99.0166 62.4702 98.9608 62.4702H98.7682C98.6746 62.4702 98.6098 62.3766 98.644 62.2884C99.1336 61.0373 99.589 60.0059 100.08 58.7549C100.109 58.6829 100.107 58.5605 100.201 58.5569C100.293 58.5533 100.332 58.6649 100.374 58.7405C100.46 58.8989 100.442 59.0627 100.379 59.2229Z" fill="white"/>
<path d="M100.806 60.277C100.524 60.9917 100.275 61.4867 99.9943 62.2013C99.9691 62.2625 99.9457 62.3255 99.9205 62.3885C99.9007 62.4389 99.8521 62.4731 99.7963 62.4731H99.5983C99.5047 62.4731 99.4399 62.3795 99.4741 62.2913C99.8287 61.3841 100.147 60.6947 100.504 59.7874C100.525 59.7316 100.533 59.6524 100.596 59.638C100.668 59.6236 100.709 59.6956 100.75 59.746C100.887 59.9098 100.88 60.0898 100.806 60.277Z" fill="white"/>
<path d="M99.561 65.0241C99.6546 65.0241 99.7194 65.1177 99.6852 65.2041C99.6186 65.3733 99.5538 65.5425 99.4872 65.7117C99.4476 65.8161 99.399 65.9133 99.318 65.9925H99.1524C98.9417 65.9043 98.9399 65.9043 99.0263 65.6865C99.1019 65.4939 99.1776 65.3013 99.2532 65.1069C99.273 65.0565 99.3216 65.0223 99.3774 65.0223L99.561 65.0241Z" fill="white"/>
<path d="M101.201 61.3801C101.037 61.7887 100.911 61.9777 100.747 62.3863C100.727 62.4367 100.679 62.4691 100.625 62.4691H100.43C100.337 62.4691 100.272 62.3755 100.306 62.2873C100.522 61.7365 100.702 61.4053 100.918 60.8545C100.94 60.7968 100.938 60.7032 101.021 60.7014C101.089 60.6996 101.127 60.7734 101.165 60.8275C101.291 61.0039 101.276 61.1893 101.201 61.3801Z" fill="white"/>
<path d="M104.443 65.9752C104.324 66.0022 104.256 65.9392 104.205 65.8096C103.091 62.9584 101.973 60.1072 100.857 57.2577C100.832 57.1947 100.762 57.1191 100.875 57.0597C100.996 56.9985 101.19 57.0165 101.257 57.1083C101.298 57.1659 101.327 57.2325 101.354 57.2991C101.973 58.8363 102.574 60.3826 103.174 61.927C103.629 63.1024 104.097 64.2724 104.558 65.4442C104.594 65.536 104.632 65.6296 104.657 65.725C104.715 65.9446 104.688 65.9752 104.443 65.9752Z" fill="white"/>
<path d="M105.285 65.9723C105.163 65.9993 105.089 65.9381 105.035 65.8013C103.924 62.9555 102.808 60.1096 101.694 57.2638C101.671 57.2026 101.609 57.136 101.701 57.0748C101.813 57.0028 102.007 57.01 102.088 57.0964C102.149 57.163 102.178 57.2476 102.211 57.3304C102.632 58.4176 103.037 59.512 103.474 60.592C104.139 62.2301 104.742 63.8951 105.424 65.5259C105.454 65.5961 105.481 65.6699 105.496 65.7455C105.539 65.9561 105.523 65.9723 105.285 65.9723Z" fill="white"/>
<path d="M102.671 64.8738C102.263 64.8774 101.854 64.8756 101.446 64.8756C101.291 64.8756 100.618 64.8756 99.8166 64.8756H99.1614C99.066 64.8756 98.9796 64.935 98.9454 65.0232C98.8518 65.2626 98.76 65.5002 98.6664 65.7396C98.6286 65.8386 98.5836 65.9322 98.49 65.9934H98.3568C98.3244 65.9826 98.2956 65.97 98.2632 65.9628C98.1372 65.9376 98.1228 65.871 98.1678 65.7594C98.2866 65.4642 98.4018 65.1708 98.517 64.8738C98.5512 64.7856 98.5872 64.6956 98.6214 64.6074C98.6556 64.5174 98.742 64.4598 98.8374 64.4598H99.507C99.6636 64.4598 99.822 64.4598 99.9786 64.4598C101.098 64.4598 102.142 64.4598 102.448 64.4616C102.639 64.4616 102.779 64.5966 102.805 64.7874C102.819 64.9116 102.724 64.8738 102.671 64.8738Z" fill="white"/>
<path d="M101.997 63.3516C101.81 63.3534 101.623 63.3516 101.434 63.3516H98.0985C98.0031 63.3516 97.9167 63.411 97.8825 63.501C97.8537 63.5766 97.8249 63.6522 97.7943 63.7278C97.7385 63.8736 97.6827 64.0194 97.6251 64.1634C97.5873 64.2624 97.5477 64.3614 97.5099 64.4604C97.4559 64.599 97.4019 64.7376 97.3479 64.8744C97.2381 65.1552 97.1247 65.4342 97.0131 65.7132C96.9663 65.8284 96.9159 65.9364 96.7953 65.9922H96.6621C96.4335 65.9256 96.4335 65.9256 96.5127 65.7222C96.6243 65.4396 96.7341 65.157 96.8457 64.8744C96.8997 64.7358 96.9537 64.599 97.0077 64.4604C97.0473 64.3614 97.0869 64.2606 97.1247 64.1598C97.1805 64.0158 97.2381 63.8718 97.2939 63.7278C97.3425 63.6018 97.3929 63.4758 97.4415 63.3516C97.4775 63.2616 97.5117 63.1716 97.5477 63.0816C97.5819 62.9934 97.6683 62.934 97.7637 62.934C97.8645 62.934 97.9779 62.934 98.1003 62.934C98.2083 62.934 98.3217 62.934 98.4405 62.934C98.5917 62.934 98.7537 62.934 98.9193 62.934C99.0363 62.934 99.1533 62.934 99.2739 62.934C99.4341 62.934 99.5961 62.934 99.7581 62.934H100.104C100.268 62.934 100.428 62.934 100.581 62.934C101.247 62.934 101.778 62.934 101.888 62.9358C102.01 62.9376 102.116 62.9772 102.165 63.105C102.23 63.2742 102.179 63.3498 101.997 63.3516Z" fill="white"/>
<path d="M61.15 62.0952C61.6126 62.0952 62.0086 61.9332 62.3344 61.6092C62.6602 61.2834 62.824 60.8532 62.824 60.3168C62.824 59.8812 62.6566 59.4942 62.3182 59.154C61.9816 58.8138 61.591 58.6428 61.1482 58.6428H58.0162C57.739 58.6428 57.5158 58.866 57.5158 59.1432V60.2844C57.5158 60.3888 57.6004 60.4716 57.703 60.4716H57.7066C57.811 60.4716 57.8938 60.387 57.8938 60.2844V59.2098C57.8938 59.1054 57.9784 59.0226 58.081 59.0226H61.1464C61.483 59.0226 61.7836 59.1558 62.0464 59.4204C62.3092 59.685 62.4406 59.9856 62.4406 60.3186C62.4406 60.765 62.3146 61.1106 62.0644 61.3536C61.8142 61.5984 61.5082 61.719 61.1464 61.719H57.2602C56.983 61.719 56.7598 61.9422 56.7598 62.2194V65.6593C56.7598 65.7637 56.8444 65.8465 56.947 65.8465H56.9506C57.055 65.8465 57.1378 65.7619 57.1378 65.6593V62.2842C57.1378 62.1798 57.2224 62.097 57.325 62.097H61.15V62.0952Z" fill="white"/>
<path d="M61.1499 61.3372C61.7601 61.3372 62.0661 60.997 62.0661 60.3148C62.0661 60.07 61.9761 59.8558 61.7943 59.6722C61.6143 59.4886 61.3983 59.3986 61.1499 59.3986H58.7756C58.4984 59.3986 58.2752 59.6218 58.2752 59.899V60.2824C58.2752 60.3868 58.3598 60.4696 58.4624 60.4696H58.466C58.5704 60.4696 58.6532 60.385 58.6532 60.2824V59.9656C58.6532 59.8612 58.7378 59.7784 58.8404 59.7784H61.1481C61.2993 59.7784 61.4271 59.8306 61.5297 59.9314C61.6323 60.034 61.6845 60.1618 61.6845 60.3166C61.6845 60.556 61.6377 60.7216 61.5423 60.817C61.4469 60.9124 61.3155 60.9592 61.1481 60.9592H56.5004C56.225 60.9592 56 61.1824 56 61.4596V65.6573C56 65.7617 56.0846 65.8445 56.1872 65.8445H56.1908C56.2952 65.8445 56.378 65.7599 56.378 65.6573V61.5244C56.378 61.42 56.4626 61.3372 56.5652 61.3372H61.1499Z" fill="white"/>
<path d="M61.15 62.8515C61.582 62.8515 61.9834 62.7435 62.3524 62.5275C62.7232 62.3114 63.0202 62.0072 63.2452 61.6166C63.4703 61.2242 63.5819 60.7904 63.5819 60.3134C63.5819 59.8922 63.4703 59.4944 63.247 59.1182C63.0238 58.742 62.725 58.4414 62.3488 58.2182C61.9726 57.9932 61.573 57.8816 61.1482 57.8816H57.2602C56.983 57.8816 56.7598 58.1048 56.7598 58.382V60.281C56.7598 60.3854 56.8444 60.4682 56.947 60.4682H56.9506C57.055 60.4682 57.1378 60.3836 57.1378 60.281V58.4486C57.1378 58.3442 57.2224 58.2614 57.3268 58.2614H61.15C61.6936 58.2614 62.1724 58.4684 62.5846 58.8824C62.9968 59.2964 63.202 59.7734 63.202 60.3152C63.202 60.7328 63.1066 61.109 62.9158 61.442C62.725 61.775 62.473 62.0306 62.1634 62.2088C61.852 62.3852 61.5136 62.4753 61.15 62.4753H58.0162C57.739 62.4753 57.5158 62.6985 57.5158 62.9757V65.6559C57.5158 65.7603 57.6004 65.8431 57.703 65.8431H57.7066C57.811 65.8431 57.8938 65.7585 57.8938 65.6559V63.0387C57.8938 62.9343 57.9784 62.8515 58.081 62.8515H61.15Z" fill="white"/>
<path d="M63.9039 58.7406C63.6123 58.2492 63.2217 57.8568 62.7303 57.5634C62.2389 57.2699 61.7115 57.1241 61.1499 57.1241H56.5004C56.225 57.1241 56 57.3473 56 57.6246V60.2814C56 60.3858 56.0846 60.4686 56.1872 60.4686H56.1908C56.2952 60.4686 56.378 60.384 56.378 60.2814V57.6912C56.378 57.5868 56.4626 57.504 56.5652 57.504H61.1481C61.6431 57.504 62.1075 57.6336 62.5413 57.891C62.9751 58.1484 63.3207 58.4958 63.5763 58.9296C63.8337 59.3634 63.9615 59.826 63.9615 60.3156C63.9615 60.726 63.8859 61.113 63.7347 61.4766C63.5835 61.8402 63.3819 62.148 63.1263 62.4036C62.8707 62.6592 62.5719 62.8608 62.2281 63.0084C61.8843 63.1578 61.5243 63.2316 61.1481 63.2316H58.7756C58.4984 63.2316 58.2752 63.4548 58.2752 63.732V65.6545C58.2752 65.7589 58.3598 65.8417 58.4624 65.8417H58.466C58.5704 65.8417 58.6532 65.7571 58.6532 65.6545V63.7986C58.6532 63.6942 58.7378 63.6114 58.8404 63.6114H61.1481C61.5765 63.6114 61.9833 63.5358 62.3703 63.3828C62.7573 63.2298 63.0957 63.0156 63.3873 62.7384C63.6789 62.4612 63.9093 62.1138 64.0821 61.6926C64.2549 61.2732 64.3395 60.8142 64.3395 60.3156C64.3395 59.7576 64.1937 59.232 63.9039 58.7406Z" fill="white"/>
<path fill-rule="evenodd" clip-rule="evenodd" d="M319.032 60.4196C318.368 60.4196 317.827 60.9601 317.827 61.6244C317.827 62.2886 318.368 62.8291 319.032 62.8291C319.696 62.8291 320.237 62.2886 320.237 61.6244C320.237 60.9601 319.696 60.4196 319.032 60.4196ZM319.032 64.4354C317.482 64.4354 316.221 63.1744 316.221 61.6244C316.221 60.0743 317.482 58.8133 319.032 58.8133C320.582 58.8133 321.843 60.0743 321.843 61.6244C321.843 63.1744 320.582 64.4354 319.032 64.4354ZM326.957 61.2234C326.444 60.3303 323.614 55.8535 318.814 56.0037C314.375 56.1169 311.792 60.0283 311.106 61.2234C310.965 61.4715 310.965 61.7751 311.106 62.0233C311.612 62.9044 314.343 67.2454 319.052 67.2454C319.117 67.2454 319.182 67.2446 319.249 67.243C323.688 67.1297 326.271 63.2184 326.957 62.0233C327.098 61.7751 327.098 61.4715 326.957 61.2234Z" fill="white"/>
</g>
<defs>
<filter id="filter0_d" x="0" y="0" width="384" height="276" filterUnits="userSpaceOnUse" color-interpolation-filters="sRGB">
<feFlood flood-opacity="0" result="BackgroundImageFix"/>
<feColorMatrix in="SourceAlpha" type="matrix" values="0 0 0 0 0 0 0 0 0 0 0 0 0 0 0 0 0 0 127 0" result="hardAlpha"/>
<feOffset dy="4"/>
<feGaussianBlur stdDeviation="18"/>
<feColorMatrix type="matrix" values="0 0 0 0 0 0 0 0 0 0 0 0 0 0 0 0 0 0 0.05 0"/>
<feBlend mode="normal" in2="BackgroundImageFix" result="effect1_dropShadow"/>
<feBlend mode="normal" in="SourceGraphic" in2="effect1_dropShadow" result="shape"/>
</filter>
</defs>
</svg>
